<svg xmlns="http://www.w3.org/2000/svg" xmlns:xlink="http://www.w3.org/1999/xlink" viewBox="0 0 2756.97 2800"><defs><linearGradient id="linear-gradient" x1="3115.45" y1="3617.52" x2="650.79" y2="556.56" gradientUnits="userSpaceOnUse"><stop offset="0" stop-color="#dae3fe"/><stop offset="1" stop-color="#e9effd"/></linearGradient><linearGradient id="linear-gradient-2" x1="4892.91" y1="-1898.27" x2="-257.71" y2="2491.92" gradientUnits="userSpaceOnUse"><stop offset="0" stop-color="#e1473d"/><stop offset="1" stop-color="#e9605a"/></linearGradient><linearGradient id="linear-gradient-3" x1="5644.14" y1="-1016.92" x2="493.51" y2="3373.28" xlink:href="#linear-gradient-2"/><linearGradient id="linear-gradient-4" x1="84.58" y1="2280.66" x2="4555.88" y2="-2454.26" gradientUnits="userSpaceOnUse"><stop offset="0" stop-color="#ff928e"/><stop offset="1" stop-color="#fe7062"/></linearGradient><linearGradient id="linear-gradient-5" x1="1902.81" y1="1951.44" x2="889.06" y2="3071.63" xlink:href="#linear-gradient-4"/><linearGradient id="linear-gradient-6" x1="1930.25" y1="605.26" x2="2575.8" y2="605.26" xlink:href="#linear-gradient"/><linearGradient id="linear-gradient-7" x1="1874.48" y1="763.39" x2="2520.05" y2="763.39" xlink:href="#linear-gradient"/><linearGradient id="linear-gradient-8" x1="1874.49" y1="831.02" x2="2594.13" y2="831.02" xlink:href="#linear-gradient"/><linearGradient id="linear-gradient-9" x1="1877.25" y1="693.41" x2="2229.35" y2="693.41" xlink:href="#linear-gradient"/><linearGradient id="linear-gradient-10" x1="2270.5" y1="681.32" x2="2603.32" y2="681.32" xlink:href="#linear-gradient"/><linearGradient id="linear-gradient-11" x1="7309.15" y1="2634.18" x2="6688.8" y2="3308.95" gradientTransform="translate(-6484.35)" gradientUnits="userSpaceOnUse"><stop offset="0" stop-color="#09005d"/><stop offset="1" stop-color="#1a0f91"/></linearGradient><linearGradient id="linear-gradient-12" x1="7107.8" y1="2684.3" x2="7162.9" y2="2684.3" gradientTransform="translate(-6484.35)" gradientUnits="userSpaceOnUse"><stop offset="0" stop-color="#febbba"/><stop offset="1" stop-color="#ff928e"/></linearGradient><linearGradient id="linear-gradient-13" x1="7358" y1="1871.09" x2="6830.14" y2="2586.54" xlink:href="#linear-gradient-11"/><linearGradient id="linear-gradient-14" x1="7169.99" y1="2506.24" x2="6549.63" y2="3181.01" xlink:href="#linear-gradient-11"/><linearGradient id="linear-gradient-15" x1="6909.21" y1="2681.47" x2="6956.78" y2="2681.47" xlink:href="#linear-gradient-12"/><linearGradient id="linear-gradient-16" x1="7263.92" y1="1801.68" x2="6736.06" y2="2517.13" xlink:href="#linear-gradient-11"/><linearGradient id="linear-gradient-17" x1="592.92" y1="1483.34" x2="1434.46" y2="33.46" gradientUnits="userSpaceOnUse"><stop offset="0" stop-color="#4f52ff"/><stop offset="1" stop-color="#4042e2"/></linearGradient><linearGradient id="linear-gradient-18" x1="-3538.33" y1="918.75" x2="-3441.11" y2="1196.53" gradientTransform="matrix(-1, 0, 0, 1, -2450.04, 0)" xlink:href="#linear-gradient-12"/><linearGradient id="linear-gradient-19" x1="-3621.42" y1="947.83" x2="-3524.2" y2="1225.61" gradientTransform="matrix(-1, 0, 0, 1, -2450.04, 0)" xlink:href="#linear-gradient-12"/><linearGradient id="linear-gradient-20" x1="-3546.74" y1="1125.3" x2="-3619.97" y2="977.58" gradientTransform="matrix(-1, 0, 0, 1, -2450.04, 0)" xlink:href="#linear-gradient-12"/><linearGradient id="linear-gradient-21" x1="417.88" y1="1381.74" x2="1259.42" y2="-68.14" xlink:href="#linear-gradient-17"/><linearGradient id="linear-gradient-22" x1="6718.54" y1="1645.49" x2="7074.79" y2="1645.49" xlink:href="#linear-gradient-12"/><linearGradient id="linear-gradient-23" x1="7048.34" y1="1608.14" x2="7159.33" y2="1608.14" xlink:href="#linear-gradient-12"/><linearGradient id="linear-gradient-24" x1="6992.09" y1="1264.63" x2="7132.94" y2="1264.63" xlink:href="#linear-gradient-12"/><linearGradient id="linear-gradient-25" x1="-217.83" y1="3032.18" x2="-270.47" y2="2858.58" gradientTransform="matrix(0.75, -0.67, 0.67, 0.75, -1174.53, -1232.04)" xlink:href="#linear-gradient-12"/><linearGradient id="linear-gradient-26" x1="-265.32" y1="2729.71" x2="-221.29" y2="2980.83" gradientTransform="matrix(0.75, -0.67, 0.67, 0.75, -1174.53, -1232.04)" xlink:href="#linear-gradient-11"/><linearGradient id="linear-gradient-27" x1="-271.64" y1="3031.37" x2="-318.99" y2="2875.18" gradientTransform="matrix(0.75, -0.67, 0.67, 0.75, -1174.53, -1232.04)" xlink:href="#linear-gradient-12"/></defs><g id="Layer_2" data-name="Layer 2"><g id="Illustration"><path d="M2437.4,2410.39c-56.61,59.6-110.18,98-152.5,128.4-497.48,356.95-1086.13,252.9-1211.23,227.49-184.74-37.52-541.84-110.05-800-413.66-390.6-459.34-329.78-1183-26.8-1660.72C302.27,604.52,595,119.53,1190,41.76c360.08-47.07,779.82,47.86,1083.78,302.52C2911.83,878.84,2866.41,1958.74,2437.4,2410.39Z" fill="url(#linear-gradient)"/><path d="M1884.73,2706.41a17.84,17.84,0,0,1-12-7.06c-42-56.59-347.31-499.44,59-904.24,385.74-384.28,560.59-463.18,583.85-689,2.71-26.36,38.36-32.69,50.08-8.92,87.65,177.65,224.21,592.19-227.7,864.28-498.51,300.14-457.66,629.15-433.55,722.65a17.9,17.9,0,0,1-19.75,22.26Z" fill="#91b3fa"/><path d="M1946.56,2714.83a25.8,25.8,0,0,1-22.08-21.61c-11.9-77-41.13-364.76,170.87-441.07,233.37-84,421.78,133.34,593.32-36.77,9-9,24.21-1.15,22,11.38-15.27,88.86-83.27,294.69-385.85,336.1-323.87,44.33-360.31,81.48-353.77,127.57a21.73,21.73,0,0,1-24.54,24.4Z" fill="#91b3fa"/><path d="M2504.36,1336.34a331.24,331.24,0,0,1-15.49,48.07,485.23,485.23,0,0,1-21,45.66c-15.32,29.84-33.71,58.07-53.84,85-40.53,53.65-89.57,100.78-143.62,140.75a919.22,919.22,0,0,1-84.27,54.63,767,767,0,0,0-80,53.58,842.84,842.84,0,0,0-138.52,133.81c-81.61,99.26-139.54,219-158.6,346.59a674.42,674.42,0,0,0-1.09,192.93c8.66,64.24,27,127.14,51.12,187.79a6.32,6.32,0,0,1-11.57,5.06c-28.23-59.94-49.33-123.66-61-189.45a657,657,0,0,1-5.68-200.21c8.11-66.74,26.94-132.11,54-193.65s63.11-119.08,105.07-171.54,90.61-99.53,143.82-140.59a803.09,803.09,0,0,1,83.63-56.46c28.48-16.34,55.52-33,81.71-51.85,52.28-37.34,100.59-80.45,142.15-129.65a678.38,678.38,0,0,0,57.5-77.68c17.06-27.26,33-56,44.49-85.76l.15-.39a5.76,5.76,0,0,1,11,3.4Z" fill="#fff" opacity="0.47"/><path d="M1933.11,2662.6c1-2.79.68-5.38.59-8l-.24-7.94-.19-15.86q0-15.87.71-31.71c.94-21.13,2.74-42.24,5.57-63.23,5.76-41.93,15.26-83.74,32.19-123.11,16.73-39.11,42.08-76.48,78.86-100.89A174,174,0,0,1,2111,2287c21.4-4.51,43.4-5.18,64.91-3.29,84.3,9.78,166.94,25.94,249.79,39.07,41.27,6.15,83.12,11.64,123.63,6.1a183.08,183.08,0,0,0,29.63-6.77,155.89,155.89,0,0,0,27.66-12.35c17.62-10.06,33.11-23.82,47-39.08l0,0a5.14,5.14,0,0,1,7.68,6.82c-14,16.15-30.06,31.08-48.79,42.33a168.23,168.23,0,0,1-29.57,14,196.69,196.69,0,0,1-31.66,8c-43.16,6.32-85.93.94-127.67-4.78-41.87-6-83.2-13.72-124.68-20.43s-83.19-13.24-124.37-18.07c-20.33-2-40.89-1.49-60.7,2.51a160.05,160.05,0,0,0-55.81,22.37c-34.23,21.8-59.06,56.48-75.93,94-17.06,37.73-27.2,78.58-33.62,119.8-3.17,20.65-5.33,41.47-6.65,62.35q-1,15.67-1.27,31.37l-.11,15.69.1,7.83c.07,2.6,0,5.26,1.23,7.73a4.77,4.77,0,1,1-8.74.61Z" fill="#fff" opacity="0.47"/><path d="M1492.63,31.8c-127-1-255.14,19.14-368.49,66.17C860.28,207.45,636.35,497.14,724,793c28.47,96.12,13.51,202.17,109.27,243.94,51.81,22.6,192.91,36.06,246.55,18.24,142.59-47.34,236.32-176.9,158.77-320.59-24.84-46-57-88-78.42-135.73s-31.22-104.29-9.36-151.79c42.92-93.23,185.49-122.87,277.94-120.08,109.12,3.3,208,57.28,266.73,149.87,73.18,115.4,91.72,255.75,81,389.71-11.46,143.33-71.89,252.78-162.46,362.74-78,94.66-163.85,185.53-215.68,296.69-47.58,102-63.12,215.12-65.27,326.76-.42,21.64-108,225.56-107.57,287.86.07,8.8,122,38,130.85,38.05l223.89,2.51a17.85,17.85,0,0,0,18.08-17.61c3.41-303.09,96.63-592.06,332.63-795.62,85.88-74.07,178.36-134.39,245.13-227.88,95.17-133.25,142.12-264.38,128.57-428.83-12.37-150.2-61.83-300.48-159.73-417C2039.68,169,1885.67,90.8,1725.61,57.05A1180.65,1180.65,0,0,0,1492.63,31.8Z" fill="url(#linear-gradient-2)"/><path d="M1726.86,2521c0,139.37-77.25,262.68-216.63,262.68-30.11,0-132.51.28-159.28-9.39-97.17-35.1-97.52-109.75-97.52-219,0-139.38,47.07-276.45,186.44-276.45S1726.86,2381.61,1726.86,2521Z" fill="url(#linear-gradient-3)"/><path d="M1371.94,0c-127-1-255.14,19.14-368.49,66.17C739.59,175.69,515.66,465.38,603.29,761.28c28.47,96.12,94.29,217.12,190.05,258.89,51.81,22.6,112.13,21.1,165.77,3.29,142.59-47.34,236.32-176.91,158.77-320.59-24.84-46-57-88-78.42-135.73s-31.22-104.29-9.36-151.79C1073,322.11,1215.59,292.48,1308,295.27c109.12,3.3,208,57.28,266.73,149.87,73.18,115.39,91.72,255.75,81,389.7-11.46,143.34-71.89,252.79-162.46,362.75-78,94.66-163.85,185.53-215.68,296.69-47.58,102-63.12,215.12-65.27,326.76-.42,21.64,6.87,247.61,7.33,309.9a16.12,16.12,0,0,0,16,16l223.89,2.51a17.85,17.85,0,0,0,18.08-17.61c3.41-303.1,96.63-592.06,332.63-795.62,85.88-74.07,178.36-134.39,245.13-227.88C2150.55,975.1,2197.5,844,2184,679.52c-12.37-150.2-61.83-300.48-159.73-417C1919,137.26,1765,59,1604.92,25.29A1180.65,1180.65,0,0,0,1371.94,0Z" fill="url(#linear-gradient-4)"/><circle cx="1385.11" cy="2523.51" r="252.36" fill="url(#linear-gradient-5)"/><path d="M686.82,732.29a3.25,3.25,0,0,1-3.16-2.54C666,649.9,663.38,524.85,751.44,382.6,837.4,243.75,958,150.85,1109.8,106.47c162.31-47.44,355-37.29,572.76,30.18a3.24,3.24,0,0,1-1.91,6.19C1262.3,13.21,934.26,99.57,757,386,670,526.41,672.56,649.67,690,728.35a3.24,3.24,0,0,1-2.47,3.86A2.79,2.79,0,0,1,686.82,732.29Z" fill="#fff" opacity="0.63"/><path d="M739.91,860.77a3.23,3.23,0,0,1-2.62-1.33c-.77-1-18.95-26.17-35.87-70.43a3.24,3.24,0,0,1,6.06-2.31c16.57,43.38,34.86,68.67,35,68.92a3.24,3.24,0,0,1-.71,4.53A3.2,3.2,0,0,1,739.91,860.77Z" fill="#fff" opacity="0.63"/><path d="M1469.55,2359.94a3.2,3.2,0,0,1-1.46-.35,181.72,181.72,0,0,0-83-19.77,3.24,3.24,0,1,1,0-6.48,188.23,188.23,0,0,1,85.91,20.47,3.24,3.24,0,0,1-1.47,6.13Z" fill="#fff" opacity="0.63"/><path d="M1280.59,2681.74a3.22,3.22,0,0,1-1.8-.55,190.22,190.22,0,0,1,16.41-325.29,3.24,3.24,0,1,1,3.07,5.7,183.74,183.74,0,0,0-15.86,314.22,3.24,3.24,0,0,1-1.82,5.92Z" fill="#fff" opacity="0.63"/><g opacity="0.3"><path d="M545.62,472.13a7.63,7.63,0,0,1-10.74,1.13c-6.37-5.15-13-10.11-19.88-14.73a7.64,7.64,0,0,1-2.12-10.48l.08-.13a7.64,7.64,0,0,1,10.61-2c7.18,4.86,14.22,10.08,20.92,15.51a7.63,7.63,0,0,1,1.61,10.08A6,6,0,0,1,545.62,472.13Zm-65.36-33.81c-7.38-3.64-15-7-22.62-10a7.64,7.64,0,0,1,5.58-14.22c8,3.14,16,6.68,23.8,10.52a7.63,7.63,0,0,1,3.47,10.23q-.21.4-.45.78A7.63,7.63,0,0,1,480.26,438.32Zm-60.95-22c-8-1.9-16.15-3.48-24.28-4.69a7.64,7.64,0,0,1,2.26-15.11c8.55,1.28,17.16,2.94,25.56,4.95a7.63,7.63,0,0,1,5.66,9.2,7.74,7.74,0,0,1-1,2.39A7.64,7.64,0,0,1,419.31,416.3ZM355,408.47c-8.22-.07-16.54.21-24.73.84a7.63,7.63,0,1,1-1.18-15.22c8.63-.67,17.38-1,26-.9a7.64,7.64,0,0,1-.13,15.28Zm-64.49,6.69c-8,1.76-16.06,3.87-23.93,6.31a7.64,7.64,0,0,1-4.51-14.6c8.28-2.55,16.75-4.78,25.18-6.63a7.63,7.63,0,0,1,8,11.62A7.53,7.53,0,0,1,290.48,415.16ZM229.08,436c-7.43,3.48-14.81,7.33-21.93,11.44a7.64,7.64,0,1,1-7.63-13.23c7.49-4.32,15.26-8.37,23.08-12A7.64,7.64,0,0,1,229.08,436ZM57,661.35a7.64,7.64,0,0,1-6.41-8.69c1.29-8.54,3-17.15,5-25.57a7.64,7.64,0,0,1,14.85,3.57c-1.92,8-3.51,16.17-4.74,24.28a7.77,7.77,0,0,1-1.14,3A7.65,7.65,0,0,1,57,661.35Zm116.9-191.52c-6.48,5.05-12.81,10.44-18.82,16a7.64,7.64,0,0,1-10.4-11.2c6.34-5.88,13-11.56,19.82-16.88A7.64,7.64,0,0,1,175.57,468,7.91,7.91,0,0,1,173.86,469.83ZM72.59,596.65a7.64,7.64,0,0,1-4.31-9.91c3.17-8,6.73-16,10.58-23.8a7.64,7.64,0,0,1,13.68,6.79c-3.65,7.37-7,15-10.05,22.62a7.63,7.63,0,0,1-9.9,4.3Zm55-81.47c-5.17,6.37-10.14,13-14.77,19.84a7.64,7.64,0,0,1-12.72-8.45l.09-.14c4.87-7.16,10.1-14.18,15.55-20.89a7.64,7.64,0,0,1,12.33,9C127.93,514.74,127.76,515,127.59,515.18Z" fill="#91b3fa"/><path d="M61.34,711.49a7.5,7.5,0,0,0,1.22-4.39c-.12-3.94-.16-7.94-.13-11.9a7.64,7.64,0,1,0-15.27-.14c0,4.16,0,8.37.14,12.52a7.64,7.64,0,0,0,14,3.91Z" fill="#91b3fa"/></g><g opacity="0.3"><path d="M158.94,922.88a7.64,7.64,0,0,0-1.28-9.82c-2.92-2.64-5.84-5.38-8.66-8.16a7.64,7.64,0,0,0-10.71,10.9c3,2.92,6.05,5.81,9.12,8.59a7.64,7.64,0,0,0,10.79-.54A7.54,7.54,0,0,0,158.94,922.88Z" fill="#91b3fa"/><path d="M599.35,877.14A7.64,7.64,0,0,1,587,868.2c4.7-6.51,9.2-13.33,13.42-20.32a7.64,7.64,0,1,1,13.08,7.88q-2.75,4.56-5.62,9C605.11,868.94,602.25,873.11,599.35,877.14Zm23.1-54.4a7.64,7.64,0,0,1-4-10c3.2-7.43,6.13-15.09,8.69-22.74a7.64,7.64,0,1,1,14.48,4.85c-2.69,8.06-5.77,16.11-9.15,23.94a7.3,7.3,0,0,1-.61,1.14A7.63,7.63,0,0,1,622.45,822.74Zm-49.72,86.39c-5.87,6.15-12.08,12.13-18.46,17.77a7.64,7.64,0,0,1-10.12-11.44c6.07-5.36,12-11,17.54-16.87A7.63,7.63,0,0,1,573.62,908,7.29,7.29,0,0,1,572.73,909.13ZM643.2,760.61a7.63,7.63,0,0,1-6.1-8.91c1.49-8,2.66-16.05,3.47-24.09a7.64,7.64,0,1,1,15.2,1.54c-.86,8.46-2.09,17-3.66,25.36a7.62,7.62,0,0,1-8.91,6.1ZM521.29,952.24c-7.07,4.7-14.44,9.16-21.91,13.26A7.64,7.64,0,0,1,492,952.12c7.1-3.9,14.1-8.14,20.81-12.61A7.65,7.65,0,0,1,523.47,950,7.74,7.74,0,0,1,521.29,952.24ZM461.64,983c-7.95,3-16.12,5.8-24.28,8.17a7.64,7.64,0,0,1-4.26-14.67c7.76-2.25,15.52-4.87,23.07-7.76A7.64,7.64,0,1,1,461.64,983Zm-64.94,17c-8.43,1.25-17,2.15-25.48,2.69a7.64,7.64,0,0,1-1-15.24c8.06-.51,16.21-1.37,24.22-2.56a7.64,7.64,0,1,1,2.23,15.11Zm-67.11,2.48c-8.5-.63-17.06-1.63-25.46-3a7.64,7.64,0,1,1,2.41-15.08c8,1.27,16.1,2.22,24.17,2.81a7.64,7.64,0,0,1-1.12,15.24Zm-66-12.35c-8.13-2.47-16.26-5.33-24.16-8.49A7.64,7.64,0,0,1,245,967.5c7.51,3,15.24,5.72,23,8.07a7.64,7.64,0,0,1,5.07,9.54,7.42,7.42,0,0,1-.9,1.93A7.62,7.62,0,0,1,263.54,990.18Zm-61.66-26.51c-5.45-3.09-10.87-6.38-16.11-9.78q-2.85-1.86-5.64-3.76a7.56,7.56,0,0,1-2-10.61,7.64,7.64,0,0,1,10.61-2c1.77,1.2,3.56,2.4,5.36,3.57,5,3.24,10.13,6.36,15.31,9.3a7.65,7.65,0,0,1,2.89,10.41c-.08.13-.16.27-.25.4A7.63,7.63,0,0,1,201.88,963.67Z" fill="#91b3fa"/><path d="M655.88,691.78a7.62,7.62,0,0,0,1.23-4.44c-.15-4.13-.39-8.33-.72-12.5A7.64,7.64,0,0,0,641.16,676c.31,4,.54,8,.68,11.88a7.64,7.64,0,0,0,14,3.88Z" fill="#91b3fa"/></g><path d="M560.09,602.53a3.57,3.57,0,0,0-3.32-2.48l-43.43-1a189.16,189.16,0,0,0-39.62-46.79l6.2-43a3.57,3.57,0,0,0-1.9-3.69L431.69,481.8a3.57,3.57,0,0,0-4.1.59l-31.37,30a189.22,189.22,0,0,0-61.1-5l-26-34.79a3.58,3.58,0,0,0-4-1.26l-49.62,15.9a3.57,3.57,0,0,0-2.48,3.32l-1,43.43a189.16,189.16,0,0,0-46.79,39.62l-43-6.2a3.57,3.57,0,0,0-3.69,1.9L134.8,615.62a3.56,3.56,0,0,0,.59,4.1l30,31.37a189.22,189.22,0,0,0-5,61.1l-34.79,26a3.56,3.56,0,0,0-1.26,3.95l15.9,49.62a3.57,3.57,0,0,0,3.32,2.48l43.43,1A189.16,189.16,0,0,0,226.59,842l-6.2,43a3.57,3.57,0,0,0,1.9,3.69l46.33,23.84a3.56,3.56,0,0,0,4.1-.59l31.37-30a189.22,189.22,0,0,0,61.1,5l26,34.79a3.56,3.56,0,0,0,4,1.26l49.62-15.9a3.56,3.56,0,0,0,2.48-3.32l1-43.43A189.16,189.16,0,0,0,495,820.72l43,6.2a3.57,3.57,0,0,0,3.69-1.9l23.84-46.33a3.57,3.57,0,0,0-.59-4.1l-30-31.37a189.22,189.22,0,0,0,5-61.1l34.79-26a3.58,3.58,0,0,0,1.26-4Z" fill="#91b3fa"/><path d="M389.44,731.8a52.33,52.33,0,1,1,4.66-6.13A52.43,52.43,0,0,1,389.44,731.8Zm-79.37-32.12a40,40,0,1,0,6.36-24.34A39.92,39.92,0,0,0,310.07,699.68Z" fill="#bdd0fb"/><path d="M457,767.79a129.31,129.31,0,0,0,6.64-11.45h0c.64-1.24,1.26-2.49,1.86-3.76a129.17,129.17,0,0,0,7.34-19.28c0-.09,0-.18.08-.27l.22-.76c.14-.5.27-1,.41-1.5a3.05,3.05,0,0,0-1.28-3.35,3.32,3.32,0,0,0-.88-.39,3.05,3.05,0,0,0-3.74,2.16,122.81,122.81,0,0,1-107.43,90.36,122,122,0,0,1-67.24-13.06A125.25,125.25,0,0,1,282,800.15,122.69,122.69,0,0,1,405.22,588.32,124,124,0,0,1,416,594.58a122.31,122.31,0,0,1,37.27,38,3.24,3.24,0,0,0,.93.95,3.05,3.05,0,0,0,4.26-4.17A128.78,128.78,0,0,0,408,582.89c-63.14-32.5-141-7.55-173.45,55.58a128.83,128.83,0,0,0,44.11,166.8,132.28,132.28,0,0,0,11.47,6.65A128.8,128.8,0,0,0,457,767.79Z" fill="#bdd0fb"/><g opacity="0.3"><path d="M856.86,362.62a4.71,4.71,0,0,0-.38-5.64c-2.6-3-5.34-6-8.13-8.92a4.72,4.72,0,1,0-6.78,6.56c2.66,2.74,5.27,5.6,7.75,8.5a4.72,4.72,0,0,0,6.66.51A4.66,4.66,0,0,0,856.86,362.62Z" fill="#91b3fa"/><path d="M830.52,337.76a4.72,4.72,0,0,1-6.63.71,194.46,194.46,0,0,0-16-11.61c-1.16-.76-2.33-1.5-3.52-2.24a4.72,4.72,0,0,1-1.52-6.49,4.89,4.89,0,0,1,6.5-1.52q1.86,1.15,3.68,2.34a202.38,202.38,0,0,1,16.81,12.18,4.71,4.71,0,0,1,1,6.23C830.72,337.5,830.62,337.63,830.52,337.76Zm-47.27-24.5a195.16,195.16,0,0,0-22.31-8.71,4.72,4.72,0,0,1,2.88-9,201.52,201.52,0,0,1,23.39,9.13,4.7,4.7,0,0,1,2.3,6.26,3.08,3.08,0,0,1-.33.59A4.71,4.71,0,0,1,783.25,313.26Zm-45.53-14.59A193.64,193.64,0,0,0,714,295.72a4.72,4.72,0,1,1,.58-9.42,202.59,202.59,0,0,1,24.93,3.1,4.72,4.72,0,0,1,3.77,5.51,4.84,4.84,0,0,1-.68,1.69A4.73,4.73,0,0,1,737.72,298.67ZM690,295.72a196.93,196.93,0,0,0-23.76,2.95,4.72,4.72,0,0,1-1.75-9.27,202.33,202.33,0,0,1,24.93-3.09,4.71,4.71,0,1,1,.58,9.41Zm-47,8.79a195.61,195.61,0,0,0-22.34,8.64,4.72,4.72,0,0,1-3.93-8.58,206.15,206.15,0,0,1,23.41-9.05,4.72,4.72,0,1,1,2.86,9Zm-43.44,19.94A190.65,190.65,0,0,0,580,338.26a4.72,4.72,0,0,1-5.91-7.36,203.94,203.94,0,0,1,20.49-14.48A4.71,4.71,0,0,1,601,323,4.63,4.63,0,0,1,599.55,324.45Zm-37.24,29.94a193.62,193.62,0,0,0-15.56,18.2,4.72,4.72,0,0,1-7.53-5.69,205.21,205.21,0,0,1,16.32-19.08,4.72,4.72,0,0,1,6.77,6.57Zm-45.62,62.13a4.72,4.72,0,0,1-2.51-6.18,207.48,207.48,0,0,1,9.57-19.61c.53-1,1.08-1.92,1.63-2.88a4.67,4.67,0,0,1,6.44-1.72,4.73,4.73,0,0,1,1.73,6.45c-.52.89-1,1.79-1.54,2.72A193.61,193.61,0,0,0,522.87,414a5.63,5.63,0,0,1-.39.73A4.72,4.72,0,0,1,516.69,416.52Z" fill="#91b3fa"/></g><g opacity="0.3"><path d="M871.1,603.05a204.6,204.6,0,0,1-14.94,19.66,4.72,4.72,0,0,1-7.15-6.15,194.33,194.33,0,0,0,14.25-18.75,4.71,4.71,0,0,1,7.87,5.19Zm6.13-19.26a4.7,4.7,0,0,1-2.07-6.33,198,198,0,0,0,9.37-21.63,4.72,4.72,0,0,1,8.87,3.23,207.52,207.52,0,0,1-9.83,22.66,3.18,3.18,0,0,1-.26.44A4.69,4.69,0,0,1,877.23,583.79Zm-38.3,56.64a205.19,205.19,0,0,1-19.25,15.47,4.72,4.72,0,1,1-5.46-7.7,195.13,195.13,0,0,0,18.37-14.76,4.72,4.72,0,0,1,7.13,6.06A4.64,4.64,0,0,1,838.93,640.43ZM894.76,538.9a4.73,4.73,0,0,1-3.54-5.66A194.25,194.25,0,0,0,895.1,510a4.72,4.72,0,0,1,9.38,1,201.29,201.29,0,0,1-4.07,24.38,4.85,4.85,0,0,1-.64,1.51A4.72,4.72,0,0,1,894.76,538.9Zm-96.06,130a204.82,204.82,0,0,1-22.4,10.39,4.72,4.72,0,0,1-3.45-8.79,194.33,194.33,0,0,0,21.37-9.91,4.72,4.72,0,0,1,6.19,6.73A4.66,4.66,0,0,1,798.7,668.91Zm-45.89,18a205.2,205.2,0,0,1-24.25,4.73,4.72,4.72,0,0,1-1.24-9.35,196.79,196.79,0,0,0,23.13-4.51,4.72,4.72,0,1,1,2.36,9.13Zm-48.9,6.5a203.27,203.27,0,0,1-24.68-1.23,4.71,4.71,0,0,1,1-9.37A192.5,192.5,0,0,0,703.81,684a4.73,4.73,0,0,1,4.77,4.67,4.72,4.72,0,0,1-4.67,4.77Z" fill="#91b3fa"/><path d="M904.79,488.73a4.68,4.68,0,0,0,.76-2.66c-.07-4-.27-8.09-.58-12a4.71,4.71,0,1,0-9.4.73c.29,3.77.48,7.64.55,11.49a4.71,4.71,0,0,0,8.67,2.48Z" fill="#91b3fa"/></g><path d="M840.92,425.61A2.38,2.38,0,0,0,838.7,424l-29.06-.64A126.48,126.48,0,0,0,783.13,392l4.15-28.75a2.41,2.41,0,0,0-1.27-2.47l-31-15.95a2.37,2.37,0,0,0-2.74.4l-21,20.08a126.83,126.83,0,0,0-40.89-3.37L673,338.65a2.4,2.4,0,0,0-2.64-.84l-33.21,10.64a2.4,2.4,0,0,0-1.66,2.22l-.63,29.06a126.48,126.48,0,0,0-31.32,26.51l-28.75-4.15a2.41,2.41,0,0,0-2.47,1.27l-15.95,31a2.38,2.38,0,0,0,.39,2.74l20.09,21A126.55,126.55,0,0,0,573.45,499L550.17,516.4a2.36,2.36,0,0,0-.84,2.64L560,552.25a2.4,2.4,0,0,0,2.22,1.66l29.06.63a126.48,126.48,0,0,0,26.51,31.32l-4.15,28.75a2.38,2.38,0,0,0,1.27,2.47l31,15.95a2.38,2.38,0,0,0,2.74-.39l21-20.09a126.53,126.53,0,0,0,40.89,3.37l17.41,23.28a2.36,2.36,0,0,0,2.64.84l33.2-10.64a2.38,2.38,0,0,0,1.66-2.22l.64-29.06a126.48,126.48,0,0,0,31.32-26.51l28.75,4.15a2.38,2.38,0,0,0,2.47-1.27l15.95-31a2.37,2.37,0,0,0-.4-2.74l-20.08-21a126.81,126.81,0,0,0,3.37-40.89l23.28-17.41a2.4,2.4,0,0,0,.84-2.64Z" fill="#91b3fa"/><path d="M727.21,512.52a35.49,35.49,0,1,1,3.2-4.21A38.92,38.92,0,0,1,727.21,512.52Zm-44.13-3.91a26.25,26.25,0,0,0,37-2.33h0a26.24,26.24,0,0,0-39.37-34.71,25.07,25.07,0,0,0-2.33,3.07A26.27,26.27,0,0,0,683.08,508.61Z" fill="#bdd0fb"/><path d="M774.19,537.57a89.3,89.3,0,0,0,11.15-24.67c.08-.26.15-.52.22-.78a4.72,4.72,0,0,0-2-5.18,4.56,4.56,0,0,0-1.35-.6,4.72,4.72,0,0,0-5.78,3.33,79.47,79.47,0,0,1-6.11,15.76h0l-.43.82a78.69,78.69,0,0,1-26,28.9,80.06,80.06,0,0,1-19.23,9.35l-.17,0-.51.17a78.91,78.91,0,0,1-60.58-5,77,77,0,0,1-7.07-4.1,79.42,79.42,0,0,1,79.76-137.13,77.53,77.53,0,0,1,7,4,79.33,79.33,0,0,1,24.14,24.62,4.57,4.57,0,0,0,1.43,1.47,4.72,4.72,0,0,0,6.58-6.44,88.86,88.86,0,1,0-124,121.34q3.81,2.47,7.91,4.59A89,89,0,0,0,774.19,537.57Z" fill="#bdd0fb"/><polygon points="1812.17 857.78 1675 998.09 1839.54 954.14 1812.17 857.78" fill="#91b3fa"/><path d="M2628.37,915.86,1849,953.68a35.07,35.07,0,0,1-36.78-35V598a64.51,64.51,0,0,1,62.52-64.48l702.45-21.74a94.72,94.72,0,0,1,94.72,94.72V870.2A45.72,45.72,0,0,1,2628.37,915.86Z" fill="#91b3fa"/><path d="M1872.26,940.81a48.19,48.19,0,0,1-48.12-48.2v-289c0-34.06,27.31-61.56,62.17-62.62l680.14-20.54c51.54,0,93.44,40.91,93.44,91.19V860.8c0,24-19.2,43.67-43.72,44.83l-741.56,35.12C1873.83,940.79,1873,940.81,1872.26,940.81Zm694.24-417-680.09,20.54c-33,1-58.89,27-58.89,59.24v289a44.8,44.8,0,0,0,46.93,44.76L2616,902.25c22.71-1.07,40.5-19.28,40.5-41.45V611.64C2656.51,563.22,2616.13,523.83,2566.5,523.83Z" fill="#fff" opacity="0.85"/><path d="M2564.22,582.3,1941,605.62c-6.12.23-10.94,4.29-10.74,9l.24,5.48c.2,4.7,5.24,8.31,11.3,8.09l623.26-22.76c6.12-.22,10.95-4.28,10.75-9l-.26-6C2575.34,585.68,2570.28,582.07,2564.22,582.3Z" fill="url(#linear-gradient-6)"/><path d="M2508.45,740.08l-623.24,23.2c-6.12.23-10.93,4.43-10.72,9.35l.24,5.67c.21,4.87,5.26,8.62,11.32,8.4l623.26-22.62c6.13-.22,11-4.41,10.74-9.34l-.27-6.26C2519.57,743.6,2514.51,739.85,2508.45,740.08Z" fill="url(#linear-gradient-7)"/><path d="M2581.26,806.08l-694.77,26.23c-6.83.26-12.21,4.52-12,9.49l.25,5.73c.21,4.92,5.82,8.68,12.57,8.43l694.81-25.64c6.82-.25,12.22-4.51,12-9.48l-.27-6.32C2593.64,809.59,2588,805.83,2581.26,806.08Z" fill="url(#linear-gradient-8)"/><path d="M2222.52,675.32l-339.69,9.9c-3.33.1-5.83,4.68-5.56,10.2l.32,6.37c.27,5.47,3.15,9.8,6.45,9.71l339.72-9.24c3.34-.09,5.84-4.67,5.57-10.2l-.35-7C2228.71,679.56,2225.82,675.22,2222.52,675.32Z" fill="url(#linear-gradient-9)"/><path d="M2596.81,663.58l-321.07,9.2c-3.15.09-5.5,4.67-5.22,10.19l.31,6.37c.28,5.47,3,9.81,6.13,9.72l321.11-8.54c3.15-.08,5.5-4.66,5.23-10.19l-.35-7C2602.67,667.83,2599.93,663.49,2596.81,663.58Z" fill="url(#linear-gradient-10)"/><path d="M628.71,2684.45s-6.43,36.37-9.58,72.37a24.81,24.81,0,0,0,23.73,26.88c47.95,2,150.5,5.88,187.3,4.24a8.08,8.08,0,0,0,7.11-11.06h0a18.05,18.05,0,0,0-9.25-9.73l-169.4-77.86Z" fill="url(#linear-gradient-11)"/><path d="M623.44,2663.08l5.17,43.5s29.67,13.82,49.94-1.74l-12.29-48.48Z" fill="url(#linear-gradient-12)"/><path d="M627.32,1845.2c-2.23,11.36-12,566.92,47.42,815.89a8.45,8.45,0,0,1-5,9.83,147.12,147.12,0,0,1-48.36,9.83A14.55,14.55,0,0,1,607,2670.31c-17-57.77-98.32-347.19-108.93-623.66-11.85-308.93,0-10.51,0-10.51l7-191Z" fill="url(#linear-gradient-13)"/><path d="M433.84,2703.42s-10.23,18.37-20.13,67.16A15.13,15.13,0,0,0,427,2788.7c15.83,1.56,40.2,3.56,59.72,3.42a15.09,15.09,0,0,0,14.94-16.83c-2.16-17.81-8.9-47-29.71-69.8Z" fill="url(#linear-gradient-14)"/><path d="M424.85,2647.47l12.07,65.79s11.92,8.87,35.51,2.44l-5.76-70.79Z" fill="url(#linear-gradient-15)"/><path d="M392.27,1862.25c-48.57,293.12,10.54,724.47,30.47,808.9a13.14,13.14,0,0,0,10.63,10c8.9,1.48,23.55,2.68,38-1.51a12.09,12.09,0,0,0,8.68-11.11c2.67-68.26-2.14-487.29,43.11-652.89a37.66,37.66,0,0,1,14.51-20.75l87.84-62.44,6.74-100.94Z" fill="url(#linear-gradient-16)"/><path d="M701.76,1306.84c-145.55-2.41-306.16,38.21-306.16,38.21-43.38,253.16-7.58,545.17-7.58,545.17,112.68,29.55,239.8-18.07,239.8-18.07,18.72-105.82,106.11-403.61,106.11-403.61,71.12-8.83,129.7-29.35,178-56.48-36.8-42.65-54.15-96.93-61.69-129C798.73,1299,746.65,1307.58,701.76,1306.84Z" fill="url(#linear-gradient-17)"/><path d="M1131.7,1092.44c-14.3-17.27-32.39-9.1-32.39-9.1-21.42,90.48-133.73,163.84-249.12,199.7,7.54,32.09,24.89,86.37,61.69,129C1103.37,1304.4,1131.7,1092.44,1131.7,1092.44Z" fill="url(#linear-gradient-18)"/><path d="M1128.23,1096.83c1.5,4.76-15.83,12-26-7.45-.36-9.32-6-49.26-.45-56.86,29.67-40.45,87.19-91.16,87.19-91.16,9.72,9.6,1.71,19,1.71,19l-27.9,29.07c5.83,10.55,13,19.45,16.29,32.21a39.09,39.09,0,0,1-3.9,28.78c-4.9,8.83-11.58,20.3-17.9,29.28C1145.28,1096.71,1128.23,1096.83,1128.23,1096.83Z" fill="url(#linear-gradient-19)"/><path d="M1150.54,1008.31l-25.43,21.56-8,21.46,22.67,25.16s7.62-42.59,13.29-51.81S1155.82,1011,1150.54,1008.31Z" fill="url(#linear-gradient-20)"/><path d="M451.43,1486,395.6,1345.05s-136,92.38-158.31,209.5c25.69,1.9,72.43,8.58,118.19,31.68C365.53,1530.93,451.43,1486,451.43,1486Z" fill="url(#linear-gradient-21)"/><path d="M570.24,1618.61s-152.64,86.27-204.15,12.61c-10.69-15.3-13.25-30.5-10.61-45-45.76-23.1-92.5-29.78-118.19-31.68-6.74,35.31-3.18,72.87,17.57,110.82,90.22,165,335.58-9.12,335.58-9.12Z" fill="url(#linear-gradient-22)"/><path d="M551.9,1727.75l83.31-290.93a8.48,8.48,0,0,1,7.17-6.11c15.1-1.76,58.83-6.7,109.33-11,60.83-5.15,131.47-9.32,173.68-5.77a8.51,8.51,0,0,1,7,12.25c-24,48.56-122.73,246.1-172.18,310.81a8.51,8.51,0,0,1-6.87,3.37L560,1738.61A8.52,8.52,0,0,1,551.9,1727.75Z" fill="#91b3fa"/><path d="M760.35,1394.51l60.4-10.06a4.34,4.34,0,0,1,4.83,5.64l-6,18.11a4.32,4.32,0,0,1-3.54,2.94l-58.12,7.77a4.34,4.34,0,0,1-4.8-5.29l3.7-15.82A4.36,4.36,0,0,1,760.35,1394.51Z" fill="#bdd0fb"/><path d="M715.13,1445.65l5-25.92a6,6,0,0,1,5.28-4.83l122-12.38a6,6,0,0,1,6.44,7.36l-7.76,32.29a6,6,0,0,1-5.53,4.59l-119.21,6A6,6,0,0,1,715.13,1445.65Z" fill="#bdd0fb"/><path d="M572,1657.46s-11.61-47.72-6.93-64.65,13.76-38.69,44-33.86S675,1576.53,675,1576.53s-1.8,22-24.78,14.93l14.25,11s-2,17.65-21.44,8.22l13.25,14.62s-8.34,14.5-22.62,5.2S612.52,1663.21,572,1657.46Z" fill="url(#linear-gradient-23)"/><path d="M554.33,1188.67,508,1322.6a4.85,4.85,0,0,0,2.2,5.82c12.63,7,58.11,27.15,112.92-7.6a22.73,22.73,0,0,0,10.47-16.23l15-115.92Z" fill="url(#linear-gradient-24)"/><path d="M655.1,1064.64s50.85,95.73,44.33,134.41-69.54,35.89-124.58,4.48l-38.46-103.37Z" fill="url(#linear-gradient-25)"/><path d="M577.28,1152.77A4,4,0,0,0,579,1147c-4.07-6.22-11.71-18.92-14.15-30,0,0-9.14-5.85,23.27-13.61s80.75-19.8,90.91-47.39c9.9-26.9-16.12-94.54-57.64-40.64a4,4,0,0,1-6.26,0c-6.8-8.86-24.7-27.25-49.54-16.1-23.25,10.43-25.87,27.47-25.55,36.06a3.92,3.92,0,0,1-4.65,4c-11.75-2.24-40-4.16-53.13,24.77-10.85,23.84-3.8,37.33,2.62,43.93a3.93,3.93,0,0,1-1.68,6.53c-7.73,2.37-17.7,8.92-16.7,27,1.38,25,29.35,22.82,37.32,21.68a4,4,0,0,1,3.5,1.23c6.83,7.56,37.6,39.65,70.91,43.52a4,4,0,0,0,4.17-5.26L568,1160.85a4,4,0,0,1,2.14-4.92Z" fill="url(#linear-gradient-26)"/><path d="M583.07,1158.71s-36.21-24.84-38.85-3.92,32.61,30.31,50.07,22.51Z" fill="url(#linear-gradient-27)"/></g></g></svg>