<svg xmlns="http://www.w3.org/2000/svg" viewBox="0 0 143.62 143.62"><g id="Layer_2" data-name="Layer 2"><g id="OBJECTS"><path d="M143.62,71.81a71.81,71.81,0,1,0-71.81,71.81A71.82,71.82,0,0,0,143.62,71.81Z" fill="#afafaf"/><path d="M143.62,71.81a71.81,71.81,0,1,0-71.81,71.81A71.82,71.82,0,0,0,143.62,71.81Z" fill="#00a9ff"/><path d="M113.48,50.26a35.43,35.43,0,0,1-9.16,2.34,17.25,17.25,0,0,0,7.43-8.82.27.27,0,0,0-.39-.33,35,35,0,0,1-10.46,3.82,17.51,17.51,0,0,0-12.74-5.42A17.32,17.32,0,0,0,70.72,59a16.89,16.89,0,0,0,.45,3.92A49.82,49.82,0,0,1,35.29,45.1a.09.09,0,0,0-.16,0,17,17,0,0,0,5.16,22.6.11.11,0,0,1-.06.2,17.49,17.49,0,0,1-7.39-2.06.09.09,0,0,0-.14.08,23.46,23.46,0,0,0,1.18,6.29A17.6,17.6,0,0,0,46.7,82.84a18.42,18.42,0,0,1-4.6.61A18,18,0,0,1,39,83.16a.09.09,0,0,0-.11.12,17.45,17.45,0,0,0,16,11.77.1.1,0,0,1,.07.18,35.9,35.9,0,0,1-25.6,7A50,50,0,0,0,56,109.89c13.58,0,24.55-4.68,32.7-11.8a50.38,50.38,0,0,0,15.77-26.7A46.84,46.84,0,0,0,105.69,61c0-.74,0-1.49-.06-2.22a35.07,35.07,0,0,0,8.17-8.14A.27.27,0,0,0,113.48,50.26Z" fill="#fff"/></g></g></svg>