<svg xmlns="http://www.w3.org/2000/svg" viewBox="0 0 442.3 320.57"><g style="isolation:isolate"><g id="Layer_1" data-name="Layer 1"><path d="M395.83,226.66c-110.46,0-200,93.68-200,209.25a216,216,0,0,0,23.38,98.25H572.44a216,216,0,0,0,23.39-98.25C595.83,320.34,506.28,226.66,395.83,226.66Z" transform="translate(-153.53 -214.63)" fill="#c0e7f5"/><g style="mix-blend-mode:multiply"><path d="M574.67,399.25a11.87,11.87,0,0,0,8.86,4.11,15.07,15.07,0,0,0,9.11-2.79,15.49,15.49,0,0,1-9,1.81,11,11,0,0,1-7.71-4.1,10.35,10.35,0,0,1-.94-1.57,11.37,11.37,0,0,0,6.39-3.9,8.28,8.28,0,0,0,1.85-5,5,5,0,0,0-.8-2.8,4.23,4.23,0,0,0-2.5-1.72,5.06,5.06,0,0,0-2.91.17,6.54,6.54,0,0,0-2.34,1.5,9,9,0,0,0-2.48,4.62,11.21,11.21,0,0,0,.41,5.81l-.31,0a20.54,20.54,0,0,1-9-1.82,33.64,33.64,0,0,1-8.13-4.76,30.41,30.41,0,0,0,7.72,5.65,20.43,20.43,0,0,0,9.42,2.48c.29,0,.59,0,.88,0A12.68,12.68,0,0,0,574.67,399.25ZM574,390a7.23,7.23,0,0,1,2-3.63,3.69,3.69,0,0,1,3.41-1.13,2.42,2.42,0,0,1,1.82,2.59,6.46,6.46,0,0,1-1.39,3.81,9.4,9.4,0,0,1-3.33,2.71,11.23,11.23,0,0,1-2.22.78A9.45,9.45,0,0,1,574,390Z" transform="translate(-153.53 -214.63)" fill="#e0ddef"/><polygon points="146.72 217.07 54.67 218.27 84.09 232.28 74.08 254.89 92.01 246.54 87.49 239.88 109.1 271.7 146.72 217.07" fill="#e0ddef"/><path d="M217.41,476.51a55,55,0,0,1-8,4.72,28.89,28.89,0,0,1-8.33,2.51c.12.5.23,1,.35,1.51a28.36,28.36,0,0,0,8.51-2.94,45.32,45.32,0,0,0,4.08-2.44c1.3-.89,2.55-1.84,3.78-2.82,2.44-2,4.76-4.06,7-6.21C222.39,472.76,220,474.71,217.41,476.51Z" transform="translate(-153.53 -214.63)" fill="#e0ddef"/><path d="M490.63,512.38v-165l3.17-1.13V309.31l-3.17-1.13v-7.07L493.8,300V280.44l-3.17-1.13v-3.95l3.17-1.13V254.69l-3.17-1.13v-1.94a192.48,192.48,0,0,0-180.77-4.69v52.38H284.05a21.53,21.53,0,0,0-30.16-10.82q-5.1,5.38-9.82,11.13a21.48,21.48,0,0,0,14.1,28.52v49.05a17.72,17.72,0,0,0,17.72,17.72h34V512.38a27.27,27.27,0,0,0,11.5,21.78H478.71A26.11,26.11,0,0,0,490.63,512.38Z" transform="translate(-153.53 -214.63)" fill="#e0ddef"/><polygon points="349.61 147.05 375.62 184.81 387.43 167.42 399.82 173.19 392.91 157.56 413.24 147.88 349.61 147.05" fill="#e0ddef"/></g><line x1="435.92" y1="319.54" x2="48.67" y2="319.54" fill="none" stroke="#4975ba" stroke-linecap="round" stroke-linejoin="round" stroke-width="2.07"/><path d="M487.8,268.23V248.69l-3.17-1.13V240a25.4,25.4,0,0,0-25.37-25.37h-130A25.4,25.4,0,0,0,303.86,240V506.38c0,13.09,10.4,24.85,23.68,26.78a7,7,0,0,0,.79.05h130a4.92,4.92,0,0,0,.67,0c14.84-1.82,25.61-13.08,25.61-26.79v-165l3.17-1.13V303.31l-3.17-1.13v-7.07L487.8,294V274.44l-3.17-1.13v-3.95Z" transform="translate(-153.53 -214.63)" fill="#4975ba"/><path d="M328.33,527.71c-10.05-1.46-19-10.37-19-21.33V240a19.9,19.9,0,0,1,19.87-19.88h130A19.9,19.9,0,0,1,479.13,240V506.38c0,11-8.92,19.87-20.78,21.33Z" transform="translate(-153.53 -214.63)" fill="#8cb6e1"/><path d="M459.26,227.91H436.59s-7.5,10.58-11.17,10.58h-59c-3.67,0-11.17-10.58-11.17-10.58h-26A12.1,12.1,0,0,0,317.14,240V481a15.63,15.63,0,0,0,15.63,15.62h123A15.62,15.62,0,0,0,471.35,481V240A12.09,12.09,0,0,0,459.26,227.91Z" transform="translate(-153.53 -214.63)" fill="#fff"/><rect x="176.33" y="40.62" width="130.49" height="13.05" fill="#b8b7db"/><rect x="176.33" y="68.31" width="130.49" height="6.52" fill="#b8b7db"/><rect x="176.33" y="84.37" width="130.49" height="6.52" fill="#b8b7db"/><rect x="176.33" y="100.44" width="130.49" height="6.52" fill="#b8b7db"/><rect x="176.33" y="116.51" width="130.49" height="6.52" fill="#b8b7db"/><rect x="176.33" y="132.58" width="130.49" height="6.52" fill="#b8b7db"/><rect x="176.33" y="148.64" width="130.49" height="6.52" fill="#b8b7db"/><rect x="176.33" y="164.71" width="130.49" height="6.52" fill="#b8b7db"/><rect x="176.33" y="180.78" width="130.49" height="6.52" fill="#b8b7db"/><rect x="176.33" y="196.85" width="130.49" height="6.52" fill="#b8b7db"/><rect x="176.33" y="212.92" width="130.49" height="6.52" fill="#b8b7db"/><rect x="176.33" y="228.98" width="130.49" height="6.52" fill="#b8b7db"/><rect x="176.33" y="245.05" width="83.86" height="6.52" fill="#b8b7db"/><rect x="176.33" y="261.12" width="50.61" height="6.52" fill="#b8b7db"/><path d="M411.78,231.79H370.12a2,2,0,0,1-1.94-1.94h0a2,2,0,0,1,1.94-1.94h41.66a1.94,1.94,0,0,1,1.94,1.94h0A1.94,1.94,0,0,1,411.78,231.79Z" transform="translate(-153.53 -214.63)" fill="#4975ba"/><path d="M423.68,229.87a2,2,0,1,1-2-2A2,2,0,0,1,423.68,229.87Z" transform="translate(-153.53 -214.63)" fill="#4975ba"/><circle cx="242.3" cy="298.1" r="9.64" fill="#4975ba"/><g style="mix-blend-mode:soft-light"><path d="M462.85,228.45,317.14,472.06v9a15.63,15.63,0,0,0,15.63,15.62H359.7L471.35,310V240A12.11,12.11,0,0,0,462.85,228.45Z" transform="translate(-153.53 -214.63)" fill="#fff"/><path d="M436.59,227.91s-7.5,10.58-11.17,10.58H372.57l-55.43,92.67V451.7L451,227.91Z" transform="translate(-153.53 -214.63)" fill="#fff"/><polygon points="256.06 282.02 317.82 178.77 317.82 115.7 218.34 282.02 256.06 282.02" fill="#fff"/></g><path d="M316.67,370.85s13.93,50.74,77,44.68c0,0-31.57-5.33-31.57-44.68Z" transform="translate(-153.53 -214.63)" fill="#1eb464"/><rect x="98.63" y="78.68" width="151.71" height="95.6" rx="17.72" fill="#1eb464"/><rect x="136.96" y="108.39" width="75.05" height="53.94" fill="#e9b745"/><rect x="146.61" y="90.63" width="55.76" height="69.11" fill="#fff"/><rect x="152.82" y="98.12" width="43.34" height="4.07" fill="#d2d2d2"/><rect x="152.82" y="106.46" width="43.34" height="4.07" fill="#d2d2d2"/><rect x="152.82" y="114.81" width="43.34" height="4.07" fill="#d2d2d2"/><rect x="152.82" y="123.15" width="43.34" height="4.07" fill="#d2d2d2"/><rect x="152.82" y="131.49" width="43.34" height="4.07" fill="#d2d2d2"/><rect x="152.82" y="139.84" width="43.34" height="4.07" fill="#d2d2d2"/><rect x="152.82" y="148.18" width="43.34" height="4.07" fill="#d2d2d2"/><polygon points="153.74 133.65 136.96 108.39 136.96 162.33 212.01 162.33 212.01 108.39 195.3 133.65 153.74 133.65" fill="#f1d64b"/><polygon points="212.01 162.33 136.96 162.33 153.74 133.65 195.24 133.65 212.01 162.33" fill="#f1d64b"/><path d="M290.5,377c1.3-2.45,2.63-4.87,4-7.3s2.65-4.87,4-7.27l4.07-7.25,4.09-7.23.2-.35h.43c6.92-.07,13.83-.09,20.75-.11s13.83,0,20.75.11h.43l.2.36c2.75,4.81,5.44,9.65,8.16,14.47,1.37,2.41,2.69,4.85,4,7.28s2.67,4.85,4,7.3c-1.49-2.33-3-4.68-4.42-7s-2.94-4.7-4.37-7.07c-2.87-4.74-5.77-9.46-8.61-14.21l.63.36c-6.92.08-13.83.09-20.75.11s-13.83,0-20.75-.11l.63-.36-4.3,7.11-4.31,7.1c-1.43,2.37-2.91,4.71-4.37,7.06S292,374.63,290.5,377Z" transform="translate(-153.53 -214.63)" fill="#e9b745"/><polygon points="81.49 233.88 140.72 211.07 103.1 265.7 81.49 233.88" fill="#c0e7f5"/><polygon points="68.08 248.89 81.49 233.88 86.01 240.54 68.08 248.89" fill="#92cbde"/><polygon points="78.09 226.28 68.08 248.89 81.49 233.88 140.72 211.07 78.09 226.28" fill="#ace0f9"/><polygon points="48.67 212.27 78.09 226.28 140.72 211.07 48.67 212.27" fill="#fff"/><path d="M218.85,464.84c-2.27,2.15-4.59,4.24-7,6.21-1.23,1-2.48,1.93-3.78,2.82a45.32,45.32,0,0,1-4.08,2.44,27.67,27.67,0,0,1-9.07,3,22.87,22.87,0,0,1-9.62-.73,17.2,17.2,0,0,1-8.27-5.2,13.07,13.07,0,0,1-3.23-9.33,9.63,9.63,0,0,1,1.65-4.88,11.35,11.35,0,0,1,3.88-3.31,11,11,0,0,1,2.37-1,6.14,6.14,0,0,1,2.75-.16,3.81,3.81,0,0,1,2.49,1.68,5.92,5.92,0,0,1,.84,2.62h0a1,1,0,0,1-.14.58,9.07,9.07,0,0,1-4.2,3.49,11.44,11.44,0,0,1-5.31.69,25.63,25.63,0,0,1-9.73-3.24,43.59,43.59,0,0,1-8.25-5.86,36.32,36.32,0,0,1-6.59-7.58,39.81,39.81,0,0,0,7,7,48.19,48.19,0,0,0,8.36,5.31,25.32,25.32,0,0,0,9.28,2.75,10.28,10.28,0,0,0,4.54-.7,7.25,7.25,0,0,0,3.33-2.89l-.14.58a4.2,4.2,0,0,0-.58-1.79,1.84,1.84,0,0,0-1.3-.83,6.4,6.4,0,0,0-3.84.95,9.4,9.4,0,0,0-3.18,2.73,7.79,7.79,0,0,0-1.28,3.9,10.63,10.63,0,0,0,.57,4.21,12.13,12.13,0,0,0,2.15,3.73,16,16,0,0,0,7.33,4.73,22.27,22.27,0,0,0,8.9.9,28.27,28.27,0,0,0,8.72-2.56,55,55,0,0,0,8-4.72C214,468.71,216.39,466.76,218.85,464.84Z" transform="translate(-153.53 -214.63)" fill="#ace0f9"/><polygon points="384.56 156.82 343.61 141.05 369.62 178.81 384.56 156.82" fill="#c0e7f5"/><polygon points="393.82 167.19 384.56 156.82 381.43 161.42 393.82 167.19" fill="#92cbde"/><polygon points="386.91 151.56 393.82 167.19 384.56 156.82 343.61 141.05 386.91 151.56" fill="#ace0f9"/><polygon points="407.24 141.88 386.91 151.56 343.61 141.05 407.24 141.88" fill="#fff"/><path d="M549.18,382.88a33.64,33.64,0,0,0,8.13,4.76,20.54,20.54,0,0,0,9,1.82,11.36,11.36,0,0,0,4.25-1.09,9.4,9.4,0,0,0,3.33-2.71,6.46,6.46,0,0,0,1.39-3.81,2.42,2.42,0,0,0-1.82-2.59,3.69,3.69,0,0,0-3.41,1.13,7.23,7.23,0,0,0-2,3.63,10.24,10.24,0,0,0,1.88,8.26,11,11,0,0,0,7.71,4.1,15.49,15.49,0,0,0,9-1.81,15.07,15.07,0,0,1-9.11,2.79,11.87,11.87,0,0,1-8.86-4.11,11.7,11.7,0,0,1-2.51-9.64,9,9,0,0,1,2.48-4.62,6.54,6.54,0,0,1,2.34-1.5,5.06,5.06,0,0,1,2.91-.17,4.23,4.23,0,0,1,2.5,1.72,5,5,0,0,1,.8,2.8,8.28,8.28,0,0,1-1.85,5,11.61,11.61,0,0,1-9,4.2,20.43,20.43,0,0,1-9.42-2.48A30.41,30.41,0,0,1,549.18,382.88Z" transform="translate(-153.53 -214.63)" fill="#ace0f9"/></g></g></svg>