<svg xmlns="http://www.w3.org/2000/svg" viewBox="0 0 363.28 428.48"><g id="Layer_2" data-name="Layer 2"><g id="Background_Simple" data-name="Background Simple"><path d="M83.41,223.55l2,.22c16.76,1.86,33.29-5.38,42.63-19.24a44.25,44.25,0,0,0,3.2-5.6,47.47,47.47,0,0,0-2.68-44.74c-4.88-7.82-12.22-14.59-13.93-23.61-2.23-11.74,5.78-22.6,13.3-31.77S143.42,78.75,141.14,67c-1.43-7.35-6.79-13.46-13-17.72-16.41-11.29-39-11.15-56.71-2.57s-31,24.54-39.72,42.21c-12.16,24.74-16,54.23-7.08,80.57S56.1,218.14,83.41,223.55Z" fill="#f5f5f5"/><path d="M324,39.25C308.76,18.18,286.09,2.92,259.71,4.62l1.46-.08a26.76,26.76,0,0,0-10.88,1.38L250,6l.17,0a47.42,47.42,0,0,0-27.83,22.37,47.47,47.47,0,0,0,2.76,48.54c5.76,8.28,14.3,14.83,17.79,24.3,3.92,10.65.59,22.65,2.86,33.77,4.27,20.88,28.93,33.33,49.72,28.65s36.62-22.74,43.83-42.79C349.2,93.37,341.11,62.85,324,39.25Z" fill="#f5f5f5"/><circle cx="261.91" cy="225.5" r="35.13" fill="#f5f5f5"/></g><g id="Plant"><rect x="27.98" y="320.54" width="60.63" height="8.33" fill="#263238"/><path d="M88.72,329H27.88v-8.53H88.72Zm-60.63-.2H88.51v-8.13H28.09Z" fill="#263238"/><polygon points="33.61 326.1 42.33 369.15 74.63 369.15 83.06 328.87 33.61 326.1" fill="#263238"/><polygon points="33.61 365.08 38.26 371.48 77.51 371.48 83.06 365.08 33.61 365.08" fill="#455a64"/><path d="M56,327.36c-.12,0-.27-19.95-.34-44.55s0-44.55.09-44.55.28,19.94.34,44.55S56.14,327.36,56,327.36Z" fill="#263238"/><path d="M69.53,277.44a2,2,0,0,1-.16.46l-.54,1.29c-.12.29-.26.6-.4.93s-.26.73-.4,1.14-.31.84-.47,1.29-.29,1-.45,1.49a59.21,59.21,0,0,0-1.69,7.42,86,86,0,0,0-.94,9.28,124.34,124.34,0,0,0,.48,17c.19,2.17.39,3.91.53,5.12l.15,1.4a2.94,2.94,0,0,1,0,.49,2.08,2.08,0,0,1-.11-.48c-.06-.37-.14-.82-.24-1.39-.19-1.2-.43-2.94-.67-5.11a111.08,111.08,0,0,1-.6-17,84.49,84.49,0,0,1,1-9.33,56.19,56.19,0,0,1,1.8-7.44c.17-.52.31-1,.48-1.48l.5-1.3c.16-.4.3-.78.44-1.12s.3-.65.43-.92c.25-.52.46-.93.62-1.27A1.92,1.92,0,0,1,69.53,277.44Z" fill="#263238"/><path d="M68,261.31a4.43,4.43,0,0,1-.19.65c-.16.47-.37,1.08-.63,1.86l-.47,1.33c-.15.5-.31,1-.49,1.62-.35,1.15-.76,2.46-1.13,3.94l-.6,2.3c-.19.81-.38,1.65-.57,2.53-.43,1.73-.73,3.62-1.12,5.59-.67,4-1.26,8.34-1.67,13s-.55,9-.6,13.06,0,7.64.2,10.68c0,1.52.15,2.89.23,4.09s.14,2.25.22,3.09.11,1.47.15,2a3.17,3.17,0,0,1,0,.68,5.34,5.34,0,0,1-.11-.67c0-.49-.13-1.14-.23-2s-.2-1.88-.29-3.09-.22-2.58-.3-4.1c-.2-3-.28-6.67-.29-10.69s.19-8.46.57-13.1,1-9,1.71-13c.4-2,.72-3.87,1.16-5.6.2-.87.4-1.72.59-2.53s.44-1.57.64-2.3c.38-1.48.82-2.79,1.19-3.94l.53-1.6.5-1.33c.29-.76.53-1.37.71-1.83A3.83,3.83,0,0,1,68,261.31Z" fill="#263238"/><path d="M52.19,330.88a.77.77,0,0,1,0-.23c0-.18,0-.4,0-.69q-.08-.94-.18-2.64c-.15-2.32-.35-5.64-.61-9.71-.53-8.2-1.29-19.54-2.67-32-.7-6.23-1.52-12.15-2.37-17.51-.45-2.68-.86-5.23-1.33-7.6s-.88-4.58-1.31-6.59-.84-3.82-1.2-5.41-.69-3-1-4.07-.48-2-.63-2.57c-.06-.28-.11-.5-.15-.67a.61.61,0,0,1,0-.24,1.33,1.33,0,0,1,.08.23l.19.66c.17.61.41,1.46.71,2.55s.67,2.46,1.05,4.05.84,3.39,1.26,5.41.92,4.21,1.36,6.59.91,4.92,1.37,7.6c.88,5.36,1.71,11.29,2.41,17.52,1.38,12.48,2.1,23.82,2.55,32,.22,4.1.37,7.43.47,9.72,0,1.13.07,2,.09,2.65,0,.28,0,.51,0,.69A.82.82,0,0,1,52.19,330.88Z" fill="#263238"/><path d="M55.53,247.85c-.26-2.83-3.12-5-6-5a9.37,9.37,0,0,0-7.22,3.92,22.52,22.52,0,0,0-3.47,7.71A52.38,52.38,0,0,0,36.74,275c.82,6.88,3.61,13.65,8.54,18.51.8.79,1.84,1.58,2.95,1.35a3.61,3.61,0,0,0,1.55-1A46,46,0,0,0,64.69,259c-.08-2.62-.42-5.34-1.87-7.52S58,247,55.53,247.85" fill="#455a64"/><path d="M55.77,238.26,19.73,217a1.65,1.65,0,0,1-.88-.88c-.15-.53.25-1,.64-1.45a24.82,24.82,0,0,1,19.26-7.56,22,22,0,0,1,17.42,10.83c3.48,6.21,3.59,14.43-.4,20.34" fill="#455a64"/><path d="M24.92,210.19a2.48,2.48,0,0,1,.47-.05,13.68,13.68,0,0,1,1.37-.07,27,27,0,0,1,5,.4,29.6,29.6,0,0,1,14.77,7.12,29.61,29.61,0,0,1,8.56,14,27.65,27.65,0,0,1,.89,4.94,10.43,10.43,0,0,1,.06,1,1.89,1.89,0,0,1-.28.78,6.14,6.14,0,0,0,.06-1.82,31.85,31.85,0,0,0-1-4.87,30.27,30.27,0,0,0-8.56-13.75,30.23,30.23,0,0,0-14.54-7.14,29.61,29.61,0,0,0-4.95-.53C25.58,210.21,24.92,210.23,24.92,210.19Z" fill="#263238"/><path d="M50.89,223.57a8.09,8.09,0,0,1-1.82.83c-1.15.46-2.75,1-4.55,1.6s-3.44,1-4.64,1.32a9.76,9.76,0,0,1-2,.38A9,9,0,0,1,39.8,227l4.59-1.44L49,224.11A11.29,11.29,0,0,1,50.89,223.57Z" fill="#263238"/><path d="M45.22,208.33a15.45,15.45,0,0,1,.42,4,15.15,15.15,0,0,1-.22,4,25.87,25.87,0,0,1-.21-4A25.68,25.68,0,0,1,45.22,208.33Z" fill="#263238"/><path d="M19.41,216.58a16.13,16.13,0,0,1,2.62-.92c1.64-.51,3.92-1.14,6.46-1.76s4.87-1.08,6.55-1.38a17.9,17.9,0,0,1,2.75-.37,18.71,18.71,0,0,1-2.69.67c-1.67.38-4,.89-6.51,1.5s-4.82,1.2-6.48,1.63A19,19,0,0,1,19.41,216.58Z" fill="#263238"/><path d="M40.57,241.71c-3.1-2.35-6.38-2.81-10.27-2.66A31.56,31.56,0,0,0,19.06,242C13,244.62,7.27,248.54,3.64,254.09s-4.89,12.91-2.18,19a2.73,2.73,0,0,0,1.24,1.5,2.93,2.93,0,0,0,2-.16c6.91-2.25,13.88-4.53,20.23-8.06s12.15-8.44,15.56-14.87a12.82,12.82,0,0,0,1.63-4.93,6.11,6.11,0,0,0-1.58-4.82" fill="#455a64"/><path d="M40.63,241a2.15,2.15,0,0,1-.5.21l-1.45.5-1,.34-1.22.48c-.88.36-1.89.71-3,1.23l-1.7.77c-.58.27-1.17.61-1.79.92-1.26.62-2.52,1.4-3.87,2.2a60.85,60.85,0,0,0-15.25,13.42c-1,1.24-1.91,2.39-2.68,3.56-.39.58-.8,1.12-1.14,1.66l-1,1.59c-.65,1-1.13,1.95-1.6,2.78-.22.41-.44.79-.63,1.15l-.48,1-.68,1.37a3.94,3.94,0,0,1-.26.47,2.94,2.94,0,0,1,.18-.51l.61-1.41c.14-.31.29-.64.45-1s.38-.75.6-1.18c.44-.83.91-1.81,1.54-2.82l1-1.61c.34-.55.74-1.1,1.13-1.68.76-1.18,1.69-2.36,2.66-3.61a63.2,63.2,0,0,1,7.09-7.42,64.31,64.31,0,0,1,8.26-6.09c1.36-.79,2.65-1.57,3.91-2.18.63-.31,1.23-.64,1.82-.9l1.72-.75c1.08-.5,2.11-.84,3-1.17.45-.16.86-.32,1.25-.45l1.06-.31,1.48-.43A3.41,3.41,0,0,1,40.63,241Z" fill="#263238"/><path d="M16.41,254.1a76,76,0,0,1-7.54,2.43,73.68,73.68,0,0,1-7.67,2,71.25,71.25,0,0,1,7.55-2.44A74.5,74.5,0,0,1,16.41,254.1Z" fill="#263238"/><path d="M16.1,270.74a11.64,11.64,0,0,1-.17-2.35c0-1.45,0-3.46,0-5.68s.18-4.22.3-5.67a11.56,11.56,0,0,1,.3-2.33,13.18,13.18,0,0,1,0,2.35c-.05,1.59-.1,3.53-.17,5.67s-.1,4.07-.14,5.66A13.73,13.73,0,0,1,16.1,270.74Z" fill="#263238"/><path d="M30.35,263.48c-.12,0-.49-4.07-.84-9.11s-.54-9.14-.42-9.15.5,4.07.85,9.12S30.47,263.47,30.35,263.48Z" fill="#263238"/><path d="M12.61,244.83a12.87,12.87,0,0,1,2.42-.08c1.49,0,3.54.06,5.81.13s4.33.17,5.82.26a13.82,13.82,0,0,1,2.41.23,13.56,13.56,0,0,1-2.42.07c-1.49,0-3.55-.05-5.82-.13s-4.33-.16-5.82-.25A13.6,13.6,0,0,1,12.61,244.83Z" fill="#263238"/><path d="M46.83,294.48a1.87,1.87,0,0,1,0-.48c0-.37,0-.83-.07-1.39-.05-1.2-.06-2.95,0-5.1s.19-4.73.45-7.57.68-5.95,1.27-9.19,1.31-6.3,2.05-9.06,1.52-5.21,2.25-7.24,1.34-3.68,1.82-4.79l.55-1.28a2.39,2.39,0,0,1,.21-.43,1.69,1.69,0,0,1-.13.46c-.13.35-.28.78-.48,1.31-.42,1.13-1,2.77-1.68,4.82s-1.42,4.5-2.16,7.25-1.41,5.81-2,9-1,6.32-1.3,9.15-.45,5.39-.53,7.53-.12,3.89-.12,5.1c0,.56,0,1,0,1.38A3.14,3.14,0,0,1,46.83,294.48Z" fill="#263238"/><path d="M48.73,270.88a10.26,10.26,0,0,1-1.44,1.58c-.93.93-2.26,2.17-3.77,3.5s-2.92,2.47-4,3.28a9.37,9.37,0,0,1-1.76,1.21A12.74,12.74,0,0,1,39.36,279c1.11-1,2.43-2.1,3.88-3.37l3.84-3.4A10.8,10.8,0,0,1,48.73,270.88Z" fill="#263238"/><path d="M60.14,280.07A18.24,18.24,0,0,1,58.61,278l-3.56-5.2-3.64-5.15A16.79,16.79,0,0,1,50,265.43a14,14,0,0,1,1.7,2c1,1.27,2.34,3.06,3.75,5.08s2.62,3.9,3.46,5.28A14.25,14.25,0,0,1,60.14,280.07Z" fill="#263238"/><path d="M54.16,251.16c.07.1-3.72,2.65-8.46,5.7s-8.64,5.44-8.7,5.34,3.72-2.65,8.46-5.7S54.1,251.06,54.16,251.16Z" fill="#263238"/><path d="M64.85,262.7a72.85,72.85,0,0,1-5.73-5.3,66.32,66.32,0,0,1-5.43-5.61,72.85,72.85,0,0,1,5.73,5.3A70.38,70.38,0,0,1,64.85,262.7Z" fill="#263238"/><path d="M67.54,262.47l3.25-.27a16.18,16.18,0,0,0,6.57-2,24.33,24.33,0,0,1,3.06-1.54c4-1.62,8.52-1.33,12.84-1.55a53.12,53.12,0,0,0,20.43-5.22,2,2,0,0,0,.89-.81c.67-1.21-.57-2.3-1.64-3-5.48-3.37-11.06-6.79-17.28-8.47s-13.27-1.39-18.57,2.26c-6.23,4.28-8.5,13.08-9.55,20.57" fill="#455a64"/><path d="M114.65,250.67a2.73,2.73,0,0,1-.55-.25l-1.54-.81c-1.34-.7-3.26-1.74-5.7-2.91a53.32,53.32,0,0,0-8.81-3.4,29.14,29.14,0,0,0-11.43-.92,19.54,19.54,0,0,0-10.42,4.47,23.17,23.17,0,0,0-5.42,7.62,61.27,61.27,0,0,0-2.36,5.93c-.24.68-.44,1.23-.58,1.64a4.43,4.43,0,0,1-.23.57,4.39,4.39,0,0,1,.14-.59l.51-1.67a52.71,52.71,0,0,1,2.24-6,23,23,0,0,1,5.44-7.79A19.72,19.72,0,0,1,86.56,242a29.1,29.1,0,0,1,11.59,1,50.46,50.46,0,0,1,8.85,3.51c2.42,1.2,4.33,2.28,5.64,3l1.51.88A3.46,3.46,0,0,1,114.65,250.67Z" fill="#263238"/><path d="M106.84,254.87c-.07.1-4.32-2.65-9.5-6.15s-9.33-6.4-9.27-6.5,4.32,2.65,9.51,6.15S106.91,254.77,106.84,254.87Z" fill="#263238"/><path d="M102.3,242a10,10,0,0,1-3.1.56,10.23,10.23,0,0,1-3.16,0,20.37,20.37,0,0,1,3.13-.32A20.85,20.85,0,0,1,102.3,242Z" fill="#263238"/><path d="M83.67,239.57a8.19,8.19,0,0,1-1.39,2.18,10.09,10.09,0,0,1-1.77,2,8.29,8.29,0,0,1,1.39-2.19A9.53,9.53,0,0,1,83.67,239.57Z" fill="#263238"/><path d="M87.49,257.38a11.61,11.61,0,0,1-2-1.11c-1.23-.75-2.89-1.84-4.67-3.13s-3.34-2.51-4.46-3.4a11.46,11.46,0,0,1-1.77-1.52,12.42,12.42,0,0,1,1.95,1.28L81,252.79c1.76,1.28,3.39,2.41,4.57,3.22A14.24,14.24,0,0,1,87.49,257.38Z" fill="#263238"/><path d="M72.33,276.29c-3.11-.82-6.8,2.2-7.44,5.34s.54,6.37,1.92,9.26a47.11,47.11,0,0,0,12.83,16.8,31.77,31.77,0,0,0,19.62,7.22c-1.31-6.09.35-12.46-.38-18.65A24.25,24.25,0,0,0,77.39,275c-2-.22-4.27-.53-5.06,1.3" fill="#455a64"/><path d="M99.26,314.91l-.44-.2a9,9,0,0,1-1.16-.78,12.16,12.16,0,0,1-3.06-4.1c-.5-1-1-2-1.59-3.16s-1.08-2.39-1.67-3.69a34.65,34.65,0,0,0-2-4,31,31,0,0,0-2.83-3.84c-2.12-2.49-4.4-4.65-6.38-6.72a44.39,44.39,0,0,1-4.86-5.83,21.67,21.67,0,0,1-2.38-4.54,13.24,13.24,0,0,1-.41-1.33,1.75,1.75,0,0,1-.1-.48s.21.63.67,1.75a23.42,23.42,0,0,0,2.47,4.43,47,47,0,0,0,4.9,5.73c2,2,4.28,4.19,6.42,6.71a30.38,30.38,0,0,1,2.86,3.9,34.49,34.49,0,0,1,2,4c.58,1.31,1.12,2.54,1.63,3.71s1.06,2.2,1.54,3.17a12.53,12.53,0,0,0,2.9,4.11C98.68,314.58,99.29,314.87,99.26,314.91Z" fill="#263238"/><path d="M83.22,309.85a9.1,9.1,0,0,1,.28-2.09c.24-1.28.64-3,1.18-4.95s1.11-3.61,1.57-4.83a9.39,9.39,0,0,1,.85-1.93,10.67,10.67,0,0,1-.56,2c-.38,1.24-.91,2.95-1.44,4.85s-1,3.64-1.3,4.89A11.88,11.88,0,0,1,83.22,309.85Z" fill="#263238"/><path d="M98.68,294.89a12.55,12.55,0,0,1-2.19-.5c-1.34-.35-3.18-.83-5.24-1.3S87.32,292.27,86,292a12.87,12.87,0,0,1-2.2-.48,11.08,11.08,0,0,1,2.24.18c1.38.18,3.27.5,5.34,1s3.91,1,5.23,1.42A10.78,10.78,0,0,1,98.68,294.89Z" fill="#263238"/><path d="M71.7,299.23a12.19,12.19,0,0,1,.33-2.41c.28-1.49.71-3.52,1.29-5.75s1.2-4.21,1.69-5.64a11.65,11.65,0,0,1,.89-2.27,16.29,16.29,0,0,1-.6,2.36c-.41,1.45-1,3.44-1.56,5.66s-1.06,4.24-1.41,5.7A13.78,13.78,0,0,1,71.7,299.23Z" fill="#263238"/><path d="M91.56,281.85a85.15,85.15,0,0,1-8.66-.7A84.55,84.55,0,0,1,74.3,280c0-.12,3.88.2,8.65.7S91.57,281.73,91.56,281.85Z" fill="#263238"/><path d="M88.72,328.84c0,.11-13.62.21-30.42.21s-30.42-.1-30.42-.21,13.62-.22,30.42-.22S88.72,328.72,88.72,328.84Z" fill="#455a64"/><path d="M79.24,346.36c0,.12-9.17.22-20.49.22s-20.5-.1-20.5-.22,9.18-.21,20.5-.21S79.24,346.24,79.24,346.36Z" fill="#455a64"/><path d="M78.89,348.87c0,.12-9,.21-20.14.21s-20.14-.09-20.14-.21,9-.22,20.14-.22S78.89,348.75,78.89,348.87Z" fill="#455a64"/><path d="M79.6,344.3c0,.12-9.49.21-21.2.21s-21.2-.09-21.2-.21,9.49-.22,21.2-.22S79.6,344.18,79.6,344.3Z" fill="#455a64"/></g><g id="Character"><path d="M172.81,70.32a34.15,34.15,0,0,1-18.67,5.33,62.65,62.65,0,0,0-6.28-.07,9.52,9.52,0,0,0-5.75,2.23,5.23,5.23,0,0,0-1.47,5.7c1.18,2.7,5,3.78,5.58,6.67.41,2.08-1.14,4.06-2.88,5.27s-3.79,2-5.26,3.54a7.22,7.22,0,0,0,3.58,12.06c1.5.34,3.33.35,4.14,1.65a4.76,4.76,0,0,1,.21,3.13,11.25,11.25,0,0,0,.86,6.59,6.11,6.11,0,0,0,5.37,3.47c.88,0,1.74-.3,2.62-.29a2.19,2.19,0,0,1,2.11,1.27,4.46,4.46,0,0,1-.09,1.81c-.32,2.95,2.63,5.25,5.47,6.1,5.69,1.69,12.05.06,16.84-3.44s8.16-8.68,10.41-14.18,3.45-11.35,4.65-17.16" fill="#263238"/><path d="M236.38,217.4a12.54,12.54,0,0,0-2.82-4.19c-7.52-8-18.93-11.84-29.91-11.22s-21.47,5.41-30,12.32c-4.56,3.68-10.69,10.8-12.29,16.43,6.68,1.61,16.66-.63,23-3.38s12.53-6.07,19.37-6.76c7.92-.81,15.7,2,23.5,3.58a14.46,14.46,0,0,0,4.76.38,5.66,5.66,0,0,0,4.06-2.27A5.56,5.56,0,0,0,236.38,217.4Z" fill="#ff725e"/><g opacity="0.3"><path d="M236.38,217.4a12.54,12.54,0,0,0-2.82-4.19c-7.52-8-18.93-11.84-29.91-11.22s-21.47,5.41-30,12.32c-4.56,3.68-10.69,10.8-12.29,16.43,6.68,1.61,16.66-.63,23-3.38s12.53-6.07,19.37-6.76c7.92-.81,15.7,2,23.5,3.58a14.46,14.46,0,0,0,4.76.38,5.66,5.66,0,0,0,4.06-2.27A5.56,5.56,0,0,0,236.38,217.4Z"/></g><path d="M230.91,312.81,250,300.45s19,15.24,22.72,13.3l-22.63-37.84-30.51,18Z" fill="#ff725e"/><path d="M241.35,289.73a1.79,1.79,0,0,1,1.12-2.12,1.75,1.75,0,0,1,2.12,1.09,1.91,1.91,0,0,1-1.21,2.25,1.8,1.8,0,0,1-2.07-1.39" fill="#e0e0e0"/><g opacity="0.6"><path d="M250.07,275.91l-3,1.94,22.82,35.55s1.74,1.25,2.82.35Z" fill="#fff"/></g><path d="M250.16,301.18c.18-.12-.29-1.09-.24-2.36s.54-2.21.36-2.33-1.07.78-1.11,2.31S250,301.32,250.16,301.18Z" fill="#263238"/><path d="M254.17,304.17c.21-.07,0-1.06.45-2.15s1.12-1.77,1-1.95-1.24.33-1.72,1.7S254,304.27,254.17,304.17Z" fill="#263238"/><path d="M260.27,303.58c-.06-.19-1.14.1-1.86,1.18s-.62,2.19-.42,2.17.42-.87,1-1.75S260.36,303.77,260.27,303.58Z" fill="#263238"/><path d="M245.5,303.51c.12-.17-.64-.87-1.19-2s-.71-2.09-.93-2.1-.41,1.18.26,2.45S245.41,303.69,245.5,303.51Z" fill="#263238"/><polygon points="233.93 285.44 242.61 305.23 239.7 307.28 229.69 288 233.93 285.44" opacity="0.3"/><path d="M222.58,207.83c-.79,0-26.44-.56-40.28,8.58l-11,6.19.3,11.1s-2.35,3.92-1.83,6.27-.07,12.28-.07,12.28-4.11.26-4.63,7.31c0,0-5.7,2.35-8.21,6.54s-28.11,51.21-29.68,58.78-2.61,20.9,3.14,25.35,18.55,2.87,18.55,2.87,1.83,5.49,13.06,5.75,28.48-12.8,28.48-12.8l51.73-35.28-12.23-26.21-18.07,11.06,19.33-22.47s8.88-15.15,6.27-31.09C235.53,230.23,222.58,207.83,222.58,207.83Z" fill="#263238"/><path d="M227,216a2.4,2.4,0,0,1-.61,0h-1.74c-1.51,0-3.7-.05-6.4,0s-5.91.13-9.45.51a51.35,51.35,0,0,0-11.31,2.36c-7.8,2.63-14.08,6.82-18.55,9.81l-5.26,3.65-1.44,1a3.39,3.39,0,0,1-.52.32,2.62,2.62,0,0,1,.46-.4l1.38-1.07c1.2-.91,3-2.22,5.17-3.78,4.42-3.07,10.71-7.34,18.6-10A50.18,50.18,0,0,1,208.75,216a92.89,92.89,0,0,1,9.5-.4c2.71,0,4.9.11,6.41.18l1.74.11A2.53,2.53,0,0,1,227,216Z" fill="#455a64"/><path d="M174.22,224.11a3,3,0,0,0-.82,1.5,1.84,1.84,0,0,0,.55,1.62,1.85,1.85,0,0,0,3.16-1.26,1.81,1.81,0,0,0-.71-1.55,3,3,0,0,0-1.63-.53s.15-.12.49-.15a2.23,2.23,0,0,1,2.33,2.25,2.3,2.3,0,0,1-4,1.59,2.23,2.23,0,0,1,.14-3.24C174,224.13,174.21,224.08,174.22,224.11Z" fill="#455a64"/><path d="M183.42,225.47s-.41-.22-.92-.75a4.73,4.73,0,0,1-1.24-5.36c.23-.69.44-1.09.5-1.07s0,.46-.14,1.16a6.64,6.64,0,0,0-.09,2.67,6.78,6.78,0,0,0,1.25,2.36C183.21,225.06,183.48,225.41,183.42,225.47Z" fill="#455a64"/><path d="M185.6,224.14c0,.05-.4-.18-.87-.67a5.9,5.9,0,0,1-1.31-2.3,6.08,6.08,0,0,1,0-3.69c.18,0,0,1.67.55,3.54S185.73,224,185.6,224.14Z" fill="#455a64"/><path d="M213.29,216c-.08,0-.11-.47-.18-1.2a9.83,9.83,0,0,0-.63-2.75,8,8,0,0,0-1.56-2.34c-.5-.54-.83-.87-.78-.93s.45.18,1,.67a6.41,6.41,0,0,1,1.78,2.4,7.14,7.14,0,0,1,.51,2.93A2.72,2.72,0,0,1,213.29,216Z" fill="#455a64"/><path d="M216.65,215.9c-.08,0-.09-.46-.09-1.19a9.22,9.22,0,0,0-.22-2.76,12.35,12.35,0,0,0-1.3-2.46c-.39-.62-.61-1-.55-1.07s.38.28.85.86a8.31,8.31,0,0,1,1.5,2.52,7.21,7.21,0,0,1,.09,2.93A2.91,2.91,0,0,1,216.65,215.9Z" fill="#455a64"/><path d="M172.42,329.53a4.68,4.68,0,0,1,.47-1.17c.34-.74.89-1.83,1.59-3.23,1.42-2.78,3.52-6.8,6.14-11.74,5.24-9.88,12.56-23.48,20.7-38.48l6-10.94a48.49,48.49,0,0,0,5.25-30.11,49,49,0,0,0-3.69-12.64c-.64-1.42-1.18-2.51-1.56-3.23l-.44-.83a1.1,1.1,0,0,1-.13-.29l.18.26.48.8c.41.72,1,1.79,1.66,3.21a48.37,48.37,0,0,1-1.3,43.07l-5.95,11-20.84,38.41c-2.63,4.9-4.78,8.87-6.28,11.66-.71,1.36-1.28,2.42-1.68,3.18l-.43.83A1.88,1.88,0,0,1,172.42,329.53Z" fill="#455a64"/><path d="M230.12,295.7a3.44,3.44,0,0,1-.56.39l-1.65,1.05-6.13,3.78c-5.17,3.19-12.3,7.64-20.08,12.68s-14.77,9.71-19.82,13.09l-6,4-1.64,1.07a3.69,3.69,0,0,1-.59.34,3.76,3.76,0,0,1,.53-.43l1.59-1.15,5.9-4.12c5-3.46,12-8.18,19.75-13.22s14.94-9.45,20.17-12.57c2.61-1.55,4.73-2.8,6.21-3.64l1.71-1A3,3,0,0,1,230.12,295.7Z" fill="#455a64"/><path d="M238.22,313.46a4.25,4.25,0,0,1-.48-1l-1.25-2.84c-1.08-2.39-2.62-5.67-4.35-9.28L227.73,291c-.52-1.11-1-2.05-1.31-2.82a4.92,4.92,0,0,1-.42-1.07,5.9,5.9,0,0,1,.6,1c.36.64.85,1.58,1.46,2.75,1.2,2.33,2.83,5.57,4.55,9.19s3.22,6.93,4.21,9.36c.51,1.22.87,2.22,1.11,2.92A4.9,4.9,0,0,1,238.22,313.46Z" fill="#455a64"/><path d="M172.42,329.53c-.1-.11,8.75-7.93,19.76-17.46s20-17.19,20.1-17.08-8.75,7.93-19.76,17.47S172.51,329.64,172.42,329.53Z" fill="#455a64"/><path d="M161.46,347.86a12.51,12.51,0,0,0,2.13-2.37c1.06-1.65,2.38-4.09,3.86-6.75s2.73-5.11,3.65-6.88a21.81,21.81,0,0,1,1.56-2.84,19.14,19.14,0,0,1-1.23,3c-.84,1.81-2.06,4.29-3.53,7s-2.84,5.07-4,6.72a8.08,8.08,0,0,1-1.66,1.72C161.77,347.77,161.48,347.89,161.46,347.86Z" fill="#455a64"/><path d="M170.83,350.7c-.08-.05.49-1.14,1.11-3a39.32,39.32,0,0,0,1.63-7.54,27.7,27.7,0,0,0,0-7.68,8.39,8.39,0,0,0-.67-2.2,4.19,4.19,0,0,1-.44-.74,2.38,2.38,0,0,1,.61.63,6.9,6.9,0,0,1,.86,2.23,24.33,24.33,0,0,1,.19,7.82,32.13,32.13,0,0,1-1.79,7.6,16.1,16.1,0,0,1-1,2.16A3.11,3.11,0,0,1,170.83,350.7Z" fill="#455a64"/><path d="M160,335.5a9.91,9.91,0,0,1,1.95-.63,31.9,31.9,0,0,0,4.61-1.65c3.47-1.61,5.74-3.84,5.86-3.69A6.59,6.59,0,0,1,171,331a18.77,18.77,0,0,1-4.19,2.69,23.07,23.07,0,0,1-4.74,1.54A7.22,7.22,0,0,1,160,335.5Z" fill="#455a64"/><path d="M173.22,262.85a1.31,1.31,0,0,1-.13.21l-.44.59c-.39.51-1,1.28-1.63,2.31a51.46,51.46,0,0,0-4.73,9.21,120.39,120.39,0,0,0-4.58,14.71c-1.48,5.6-3,11.86-5.5,18.1s-5.77,11.78-7.83,17.2a42.23,42.23,0,0,0-3.12,14.95,26.57,26.57,0,0,0,.67,5.84,24.41,24.41,0,0,0,1.43,4.21,27.48,27.48,0,0,0,1.28,2.51c.15.25.27.47.36.64a.85.85,0,0,1,.11.22.9.9,0,0,1-.15-.19l-.41-.62a22.59,22.59,0,0,1-1.38-2.48,23.72,23.72,0,0,1-1.52-4.22,25.71,25.71,0,0,1-.76-5.91,42.26,42.26,0,0,1,3-15.13c2-5.47,5.23-11.05,7.79-17.22s4-12.42,5.53-18A114.85,114.85,0,0,1,166,275a48.43,48.43,0,0,1,4.91-9.18c.7-1,1.29-1.77,1.71-2.27l.48-.56C173.16,262.9,173.22,262.84,173.22,262.85Z" fill="#455a64"/><path d="M174.91,231.29a10.69,10.69,0,0,1-.52,1.22,13.39,13.39,0,0,0-1,3.44,16.58,16.58,0,0,0,.19,5.28c.3,2,1.13,4,1.69,6.34a10.47,10.47,0,0,1,.3,3.46,21.73,21.73,0,0,1-.51,3.16,50.25,50.25,0,0,1-1.55,5.18c-.51,1.44-1,2.6-1.28,3.39a6,6,0,0,1-.55,1.22,6.46,6.46,0,0,1,.36-1.29c.29-.91.67-2.06,1.12-3.44s1-3.2,1.43-5.16a13.48,13.48,0,0,0,.18-6.4c-.55-2.24-1.38-4.35-1.66-6.38a15.77,15.77,0,0,1-.08-5.42,12.74,12.74,0,0,1,1.16-3.47,9.22,9.22,0,0,1,.5-.86Q174.88,231.28,174.91,231.29Z" fill="#455a64"/><path d="M176.13,261.37a12.64,12.64,0,0,0,2.51-4.25,15.8,15.8,0,0,0,.79-5.31,36.55,36.55,0,0,0-.83-6.57,61.23,61.23,0,0,1-1.1-6.62,25.7,25.7,0,0,1,.11-5.49,15.36,15.36,0,0,1,.87-3.6,7.7,7.7,0,0,1,.43-.92c.11-.2.18-.3.19-.29a10.28,10.28,0,0,1-.43,1.28,17.74,17.74,0,0,0-.7,3.57,27.11,27.11,0,0,0,0,5.41c.18,2,.68,4.23,1.13,6.56a34.47,34.47,0,0,1,.8,6.67,15.51,15.51,0,0,1-.92,5.43,10.25,10.25,0,0,1-1.86,3.21,6.51,6.51,0,0,1-.72.71C176.24,261.31,176.14,261.38,176.13,261.37Z" fill="#455a64"/><path d="M201.49,253.49a5.12,5.12,0,0,1-1.21.23c-.78.1-1.91.27-3.29.51A70.62,70.62,0,0,0,186.37,257a69.34,69.34,0,0,0-10.05,4.4c-1.24.66-2.24,1.22-2.91,1.62a6.3,6.3,0,0,1-1.09.57,5.65,5.65,0,0,1,1-.74c.65-.46,1.62-1.07,2.84-1.77a58.63,58.63,0,0,1,20.79-7.17c1.4-.2,2.54-.32,3.33-.36A6.82,6.82,0,0,1,201.49,253.49Z" fill="#455a64"/><path d="M203.12,242.59c0,.1-1.48.07-3.81.44a28.45,28.45,0,0,0-4,.94,27.77,27.77,0,0,0-8.92,4.68,27.25,27.25,0,0,0-3.06,2.77c-1.63,1.71-2.45,2.94-2.53,2.88a4.24,4.24,0,0,1,.52-.89,19.2,19.2,0,0,1,1.74-2.24,24.62,24.62,0,0,1,3-2.9,26.09,26.09,0,0,1,9.07-4.76,25,25,0,0,1,4.12-.85,18.36,18.36,0,0,1,2.82-.15A3.94,3.94,0,0,1,203.12,242.59Z" fill="#455a64"/><path d="M205.35,265.46a5,5,0,0,1-1.12.44c-.74.24-1.8.6-3.1,1.06a90.8,90.8,0,0,0-19.3,9.51c-1.16.75-2.09,1.37-2.73,1.81a6.5,6.5,0,0,1-1,.63,4.88,4.88,0,0,1,.91-.8c.6-.49,1.5-1.15,2.64-1.95A73.69,73.69,0,0,1,201,266.61c1.33-.42,2.4-.73,3.16-.91A6.42,6.42,0,0,1,205.35,265.46Z" fill="#455a64"/><path d="M236.88,239.3a6.21,6.21,0,0,1-1-.34c-.62-.23-1.53-.58-2.7-1a49.41,49.41,0,0,0-10-2.19l.25-.23c.12,4.3.09,9.41-.29,14.86a123.72,123.72,0,0,1-2.11,15.81v-.11a78.29,78.29,0,0,0,3.32,8.88c.47,1.05.91,1.83,1.2,2.36a4.38,4.38,0,0,1,.46.82,6,6,0,0,1-.57-.75,22.55,22.55,0,0,1-1.31-2.32,66.37,66.37,0,0,1-3.52-8.86v-.1a134.66,134.66,0,0,0,2-15.76c.38-5.43.43-10.53.36-14.82v-.26l.26,0a47,47,0,0,1,10,2.39c1.16.43,2.06.81,2.67,1.09A6.14,6.14,0,0,1,236.88,239.3Z" fill="#455a64"/><path d="M237.69,243.63a11.72,11.72,0,0,1-2.1-.57c-1.29-.39-3.07-.88-5.06-1.35-4-.93-7.27-1.53-7.24-1.69a8.79,8.79,0,0,1,2.18.19c1.33.2,3.17.52,5.18,1A26.19,26.19,0,0,1,237.69,243.63Z" fill="#455a64"/><path d="M232.88,228.24c0,.08-1.22-.28-3.17-.73a53.13,53.13,0,0,0-7.71-1.23,62.12,62.12,0,0,0-7.82-.11,26.31,26.31,0,0,1-3.26.12,3.23,3.23,0,0,1,.86-.19c.55-.1,1.36-.2,2.37-.3a47.25,47.25,0,0,1,7.89,0,41.68,41.68,0,0,1,7.77,1.39c1,.28,1.74.53,2.27.73A2.79,2.79,0,0,1,232.88,228.24Z" fill="#455a64"/><path d="M212.54,232.75a7.39,7.39,0,0,1-1.33.42c-.86.22-2.12.51-3.7.78a49.71,49.71,0,0,1-12.45.62c-2.41-.23-4.82-.5-6.7-1.68a5.64,5.64,0,0,1-2.09-2.26,4.33,4.33,0,0,1-.36-2.65,14.51,14.51,0,0,1,1.12-3.64,4.14,4.14,0,0,1,.71-1.2s-.21.45-.52,1.28a16.31,16.31,0,0,0-.94,3.6,3.94,3.94,0,0,0,.38,2.42,5.3,5.3,0,0,0,2,2.05c1.75,1.07,4.1,1.33,6.49,1.56a56,56,0,0,0,12.35-.46c1.58-.23,2.84-.46,3.72-.62A8.14,8.14,0,0,1,212.54,232.75Z" fill="#455a64"/><path d="M210,53.52c-4.78-10.36-16.61-8.32-22.27-5.57A25,25,0,0,0,175.21,61.2c-1.67,4-3,8.56-6.34,11a50,50,0,0,1-4.76,2.48,6.18,6.18,0,0,0-3.32,4.21c-.5,3.44,3,5.83,5.88,7.22-1.73,1.18-2.19,3.86-1.58,6a15.4,15.4,0,0,0,3.42,5.5,85.44,85.44,0,0,0,17.36,14.64c5.46,3.39,9,3.8,14.86,1.35,2.38-1,4.6-2.61,7.14-2.9,2.94-.34,5.77,1.18,8.68,1.78s6.61-.22,7.55-3.3a21.6,21.6,0,0,0,.4-3.7c.16-1.24.77-2.57,1.88-2.85.9-.23,1.79.31,2.68.61,2.11.7,5.29,16.36,7.31,15.41,0,0,2.94-26.55-2.73-42.07-1.8-5-5.66-15.52-8.75-19.64-4.24-5.64-14.4-4.39-14.9-3.38" fill="#263238"/><path d="M203.92,55.24c-7.52-2.63-17.68,3.14-20,10.77-2.56,8.48-5.35,18.93-5.84,25.59-1,13.39,8.53,17.35,8.53,17.35l-3.88,20.93,32.64-10.55L226.77,70l1.06-4.15Z" fill="#ffbe9d"/><path d="M183.93,76.34c.12.28,1.67-.13,3.37.54s2.61,2,2.88,1.88.07-.51-.32-1.12a4.67,4.67,0,0,0-2.2-1.76,4.47,4.47,0,0,0-2.78-.17C184.2,75.9,183.87,76.21,183.93,76.34Z" fill="#263238"/><path d="M200.82,80.78c.2.24,1.55-.63,3.37-.5s3.1,1.13,3.32.92-.09-.5-.64-1a4.69,4.69,0,0,0-2.64-1,4.44,4.44,0,0,0-2.7.68C200.94,80.29,200.72,80.68,200.82,80.78Z" fill="#263238"/><path d="M193.24,88.27a12.13,12.13,0,0,0-2.77-1.2c-.44-.15-.85-.34-.86-.67a2.41,2.41,0,0,1,.62-1.28L192.39,82c3-4.49,5.33-8.23,5.15-8.35s-2.78,3.43-5.81,7.92c-.73,1.11-1.44,2.17-2.1,3.18a2.71,2.71,0,0,0-.66,1.73,1.15,1.15,0,0,0,.59.84,3.26,3.26,0,0,0,.75.29A11.83,11.83,0,0,0,193.24,88.27Z" fill="#263238"/><path d="M186.61,109a35.16,35.16,0,0,0,18.82-.48s-6.34,8.06-19.42,3.75Z" fill="#eb996e"/><path d="M192.27,94.26c-.18-.23.08.26,0,0Z" fill="#eb996e"/><path d="M198.08,93.39a3.36,3.36,0,0,0-2-1.75,3.68,3.68,0,0,0-3.52.58,2.26,2.26,0,0,0-.31,2c.63.8.68,1.48,1.57,2a4.61,4.61,0,0,0,3.84-.45A2.13,2.13,0,0,0,198.08,93.39Z" fill="#eb996e"/><path d="M198.19,90.74c-.28-.09-.74,1.84-2.72,2.83s-4,.29-4.06.55.37.49,1.23.71a5,5,0,0,0,3.37-.35,4.3,4.3,0,0,0,2.16-2.4C198.43,91.29,198.33,90.76,198.19,90.74Z" fill="#263238"/><path d="M204.49,71.36c-.09.51,1.4,1,2.9,2.13s2.55,2.31,3,2c.2-.13.19-.67-.11-1.38a5.58,5.58,0,0,0-1.83-2.2,5.18,5.18,0,0,0-2.65-1C205,70.93,204.54,71.12,204.49,71.36Z" fill="#263238"/><path d="M185,69.48c.4.38,1.76-.18,3.45-.36s3.15,0,3.43-.49c.13-.22-.14-.62-.8-.95a5.25,5.25,0,0,0-2.87-.41,5.17,5.17,0,0,0-2.67,1.1C185,68.85,184.84,69.3,185,69.48Z" fill="#263238"/><path d="M229.66,65.84a5.09,5.09,0,0,0-2.5-2.22A167.69,167.69,0,0,0,207,54.26l-2.84,1.61A14.1,14.1,0,0,0,211.09,70c1.95,1.08,4.47,2.09,4.72,4.3s-2.14,3.85-3.5,5.71a7.2,7.2,0,0,0-.22,8c.87,1.35,2.19,2.38,3,3.77a7.15,7.15,0,0,1,.27,6.16c-.81,2-2.17,4.63-4,5.75a12.23,12.23,0,0,0,13.09-5.52c1.51-2.58,1.64-5.71,1.84-8.69a111.74,111.74,0,0,1,3.23-20.16A5.44,5.44,0,0,0,229.66,65.84Z" fill="#263238"/><path d="M207.49,54.57a27.9,27.9,0,0,1-6.24,6c-2.45,1.53-5.6,2.25-8.28,1.17.67-.74,1.34-1.49,2-2.23a41.79,41.79,0,0,1-15.91,6.58c3.58-4.35,7.27-8.8,12.16-11.61s11.3-3.67,16.07-.68" fill="#263238"/><path d="M230.32,79.86,215.08,91.7c1.75,1.9,1.06,6.77-.65,8.7s-4,3.58-4.67,6.07c-.74,2.74.71,5.56.75,8.4.06,4-2.64,7.43-4.71,10.86s-3.58,8-1.26,11.26c2.6,3.68,8.52,3.16,12.09.4s5.61-7,8.26-10.63,6.79-6.43,11.28-6A86.19,86.19,0,0,0,230.32,79.86Z" fill="#263238"/><path d="M232.87,112.86c-.1-.16.81-.82,2.35-2A30.33,30.33,0,0,0,241,105a18.94,18.94,0,0,0,2.58-4.88,15.63,15.63,0,0,0,.9-6.13,13.74,13.74,0,0,0-2.1-6.38,21.51,21.51,0,0,0-5.06-5.46c-4.1-3.18-9-5-13.28-6.9a48.17,48.17,0,0,1-11.19-6.14,20.38,20.38,0,0,1-5.68-6.56c-.93-1.84-1.09-3-.94-3s.67.93,1.8,2.51a23.89,23.89,0,0,0,5.91,5.61,53.89,53.89,0,0,0,11,5.4c2.18.87,4.51,1.77,6.89,2.88a35.42,35.42,0,0,1,7.07,4.19,23.14,23.14,0,0,1,5.64,6.18,15.84,15.84,0,0,1,2.32,7.6,17.13,17.13,0,0,1-1.28,7,19.81,19.81,0,0,1-3.14,5.25,24.64,24.64,0,0,1-6.64,5.56C234,112.65,233,113,232.87,112.86Z" fill="#263238"/><path d="M233.16,76.92a7.1,7.1,0,0,1-1.33-.43c-.84-.31-2.05-.78-3.53-1.4a44.64,44.64,0,0,1-10.89-6.2,22.27,22.27,0,0,1-7.24-10.16,14.77,14.77,0,0,1-.7-3.75,7.35,7.35,0,0,1,0-1c0-.24,0-.36,0-.36a23.07,23.07,0,0,0,1,5,22.86,22.86,0,0,0,7.22,9.88,49.24,49.24,0,0,0,10.71,6.26l3.46,1.55A8.41,8.41,0,0,1,233.16,76.92Z" fill="#455a64"/><path d="M233.64,92.1c-.06,0,.24-.6.4-1.73a8.41,8.41,0,0,0-.8-4.67,13.61,13.61,0,0,0-4.62-5.32c-2.19-1.58-4.92-2.85-7.64-4.47a27.39,27.39,0,0,1-6.81-5.75,28.19,28.19,0,0,1-4-6.1,24.85,24.85,0,0,1-1.66-4.61c-.16-.56-.23-1-.29-1.31a1.45,1.45,0,0,1-.05-.46s.19.61.53,1.71a28.67,28.67,0,0,0,5.81,10.46,27.62,27.62,0,0,0,6.71,5.61c2.68,1.6,5.42,2.89,7.65,4.53a13.55,13.55,0,0,1,4.67,5.56,8.34,8.34,0,0,1,.67,4.85,4.75,4.75,0,0,1-.39,1.29A1.55,1.55,0,0,1,233.64,92.1Z" fill="#455a64"/><path d="M149.37,81.93s0-.06.09-.16a2.59,2.59,0,0,1,.33-.45,4.42,4.42,0,0,1,1.7-1.25,9.83,9.83,0,0,1,3.3-.57c1.28-.08,2.77-.17,4.4-.18a23.9,23.9,0,0,0,5.25-.48,12.89,12.89,0,0,0,5.27-2.78A23.4,23.4,0,0,0,174,71a70.59,70.59,0,0,0,3.43-6.36A52.53,52.53,0,0,1,181,58.26a19.44,19.44,0,0,1,4.73-4.91,19.79,19.79,0,0,1,10.85-3.55,18.55,18.55,0,0,1,7.6,1.35l1.11.49.78.44a3.18,3.18,0,0,1,.62.39,4.73,4.73,0,0,1-.67-.3l-.79-.39-1.12-.45a19.17,19.17,0,0,0-7.52-1.16A19.57,19.57,0,0,0,186,53.74a19.19,19.19,0,0,0-4.59,4.81,52.65,52.65,0,0,0-3.54,6.29,70.62,70.62,0,0,1-3.47,6.4A23.62,23.62,0,0,1,170,76.43a13.28,13.28,0,0,1-5.48,2.83,23.11,23.11,0,0,1-5.35.43c-1.63,0-3.09,0-4.39.1a10,10,0,0,0-3.23.47,4.51,4.51,0,0,0-1.7,1.13C149.54,81.74,149.39,81.94,149.37,81.93Z" fill="#455a64"/><path d="M143.25,68.47c-6-15.15-14-30-15.1-41.3l-12,.49c.26,4.36,1.82,40.74,10.3,55.12s36.74,48,36.74,48l10-25.6S149.26,83.62,143.25,68.47Z" fill="#ffbe9d"/><path d="M123.33,3.66H118.1s.51,3.07,2.88,3.24,1.91-.36,1.91-.36l-.54.48-3.26.65s.17,2.54,2.32,2.94l3.16-2.94Z" fill="#ffbe9d"/><path d="M137.65,3.2c-.48,3.93-.54,3.69-.54,3.69l-4.78,4L131.12,5a1.8,1.8,0,0,0-1.64-1.42l-2.18-.13s.85-3-1.88-2.76c0,0-1.5-.41-2.71,4.62-1.32,5.48-7,18.38-6.52,22.7l12.13.48c-.13-4,3.17-8.27,4.8-10.1a4.52,4.52,0,0,0,1-1.94,5.92,5.92,0,0,1,1.36-2.65c1.49-1.66,4.65-4.65,4.65-4.65V0S138.11-.61,137.65,3.2ZM127.91,12l-2.49,1.13.42-2.54,2.07-.21Z" fill="#ffbe9d"/><path d="M125.31,13.41a4.7,4.7,0,0,1,.12-1.07c.11-.68.29-1.67.52-2.88s.53-2.7.84-4.27a18.59,18.59,0,0,0,.41-2.48c0-.81-.3-1.75-1.17-1.8a2,2,0,0,0-1.93,1.26,4.89,4.89,0,0,0-.48,1.15c-.13.41-.26.8-.39,1.19l-1.3,4.15c-.39,1.18-.75,2.12-1,2.75a3.89,3.89,0,0,1-.49,1,5.72,5.72,0,0,1,.3-1c.22-.65.52-1.6.87-2.79l1.19-4.18c.12-.39.25-.79.38-1.2a5.55,5.55,0,0,1,.51-1.26A3.66,3.66,0,0,1,124.6.8a2,2,0,0,1,1.5-.4,1.92,1.92,0,0,1,.77.27,1.62,1.62,0,0,1,.53.61,2.87,2.87,0,0,1,.31,1.44,16.91,16.91,0,0,1-.45,2.57l-1,4.24c-.27,1.21-.51,2.18-.68,2.85A3.88,3.88,0,0,1,125.31,13.41Z" fill="#eb996e"/><path d="M127.79,12.05a20.36,20.36,0,0,1-.15-3c0-.4-.06-.78-.09-1.13s-.08-.6-.23-.72c-.34-.25-.75-.26-.73-.35s.09-.07.24-.08a1.11,1.11,0,0,1,.7.13,1.28,1.28,0,0,1,.49,1,9.7,9.7,0,0,1,.14,1.16A5.65,5.65,0,0,1,127.79,12.05Z" fill="#eb996e"/><path d="M133.72,9.81c.05.06-.32.44-1,1a12.09,12.09,0,0,1-2.85,1.88,9.48,9.48,0,0,1-3.33.79,3.39,3.39,0,0,1-1.4,0,4.12,4.12,0,0,1,1.36-.32,12.89,12.89,0,0,0,3.16-.9,19.27,19.27,0,0,0,2.84-1.7C133.22,10,133.68,9.75,133.72,9.81Z" fill="#eb996e"/><path d="M228.76,123.39s13.45-.4,21.52-2.79,39-9.77,39-9.77L339,102.55l1,12.85S293.8,128.89,284.84,132s-49.93,17.12-57.65,15.34l-4.8-9.88Z" fill="#ffbe9d"/><path d="M362.8,87.46c-.81-.18-4.83,1.65-4.83,1.65a2.68,2.68,0,0,0,.08-3.32l-5.52,2.71a55.62,55.62,0,0,1-4.61,4.18,64.42,64.42,0,0,0-7.05,7.61l-3.29,3.07,2.05,12.16a10.3,10.3,0,0,0,4.31-.57c1.71-.8,4.21-4,4.21-4l4.71-.4a2.67,2.67,0,0,0,1.5-.59,3.92,3.92,0,0,0,1.17-3.21c3-1.71,1.25-3.86,1.25-3.86a3.73,3.73,0,0,0,2.42-1.34,2.25,2.25,0,0,0-.15-2.64c-.57-1-4.88-.68-4.88-.68L353.94,97s6.6-5.24,8.07-6.38S363.56,87.63,362.8,87.46Z" fill="#ffbe9d"/><path d="M358.05,89a7.38,7.38,0,0,1-2,2.42,24.8,24.8,0,0,0-2.42,2.35,10,10,0,0,0-1.76,3.65,20,20,0,0,1-1.49,4,13.29,13.29,0,0,1-2,2.81,12.23,12.23,0,0,1-1.73,1.55c-.45.32-.72.46-.74.43s.95-.76,2.19-2.22a14.61,14.61,0,0,0,1.86-2.8,21.28,21.28,0,0,0,1.41-3.87,10.19,10.19,0,0,1,1.9-3.81,19.68,19.68,0,0,1,2.54-2.32A30.11,30.11,0,0,0,358.05,89Z" fill="#eb996e"/><path d="M355.62,106.71a6.65,6.65,0,0,1-2.21,1,10.41,10.41,0,0,1-2.61.54,8.6,8.6,0,0,1-1.6,0,3.51,3.51,0,0,1-1.68-.57,1.94,1.94,0,0,1-.84-1.65,2.42,2.42,0,0,1,.88-1.45,2.89,2.89,0,0,1,1.3-.73c.43-.12.84-.21,1.2-.29a6.68,6.68,0,0,1,2.42-.27s-.89.23-2.33.63l-1.16.34a2.5,2.5,0,0,0-1.1.67,2.09,2.09,0,0,0-.7,1.13,1.42,1.42,0,0,0,.64,1.19,4.94,4.94,0,0,0,2.94.54,11.83,11.83,0,0,0,2.54-.41C354.73,107,355.59,106.64,355.62,106.71Z" fill="#eb996e"/><path d="M356.9,102.89a4.1,4.1,0,0,1-1.7.51,11,11,0,0,1-1.93.14,3,3,0,0,1-2.31-.89,2.3,2.3,0,0,1-.09-2.48,3.28,3.28,0,0,1,1.47-1.35,3.72,3.72,0,0,1,1.71-.5,15.67,15.67,0,0,1-1.53.82,3.08,3.08,0,0,0-1.23,1.25,1.88,1.88,0,0,0,.08,1.94,2.61,2.61,0,0,0,1.92.73,14.08,14.08,0,0,0,1.87,0A10.66,10.66,0,0,1,356.9,102.89Z" fill="#eb996e"/><path d="M353.66,110.39a4.81,4.81,0,0,1-1.38.43,12,12,0,0,1-3.5.42,1.35,1.35,0,0,1-1.08-.46,1.5,1.5,0,0,1-.3-1,1.91,1.91,0,0,1,.84-1.48c.87-.53,1.52-.21,1.48-.17a3,3,0,0,0-1.26.47,1.62,1.62,0,0,0-.58,1.19,1.07,1.07,0,0,0,.22.7.88.88,0,0,0,.71.26,17.34,17.34,0,0,0,3.4-.26A3.81,3.81,0,0,1,353.66,110.39Z" fill="#eb996e"/><path d="M205.91,166a3.6,3.6,0,0,1-.94.54,18,18,0,0,1-2.75,1.06,20.86,20.86,0,0,1-9.68.47,20.36,20.36,0,0,1-8.81-4,15.77,15.77,0,0,1-2.15-2,4,4,0,0,1-.66-.86c.07-.07,1.06,1.13,3,2.59a21.49,21.49,0,0,0,8.69,3.81,22,22,0,0,0,9.48-.32C204.5,166.65,205.87,165.93,205.91,166Z" fill="#ff725e"/><path d="M183.2,129s31.64-10.12,32.82-10.43,29.09,2.17,29.09,2.17-1.21,18.49,5.86,24.47h0l-20.53,7.4L224,170.47s-3.61,7.26-.74,14.07c5.43,12.89,14.86,33.23,13.47,35.56-.15.24-1-7-14.39-10.85-4.06-1.15-11.44-1.16-18.1.18-28.7,5.78-39.78,19-43,21.31,0,0,5.91-46.36,3.11-53.6s-5.74-12-3.44-18.42S166.57,142,166.57,142l-11.3-12.83,15.8-26.28,14.45,12Z" fill="#ff725e"/><path d="M193.71,172a4,4,0,0,1-1.08,0,16.81,16.81,0,0,1-2.95-.37,18.35,18.35,0,0,1-8.62-4.53,17.13,17.13,0,0,1-4.87-8.43,14.61,14.61,0,0,1-.4-2.94,3.75,3.75,0,0,1,.05-1.09,39.25,39.25,0,0,0,.71,3.94,17.72,17.72,0,0,0,4.87,8.14,19.09,19.09,0,0,0,8.35,4.55C192.16,171.92,193.72,171.91,193.71,172Z" fill="#263238"/><path d="M164,132.8a10.8,10.8,0,0,1,2.2,5.46,10.53,10.53,0,0,1-.53,5.85,27.34,27.34,0,0,0,0-5.78A29.19,29.19,0,0,0,164,132.8Z" fill="#263238"/><path d="M231.16,138.28c.05.08-.66.54-1.61,1.46a13.64,13.64,0,0,0-3,4.22,13.24,13.24,0,0,0-1.13,5c0,1.33.14,2.16.05,2.17a5.33,5.33,0,0,1-.41-2.16,11.75,11.75,0,0,1,1-5.23,12.19,12.19,0,0,1,3.18-4.28A5.75,5.75,0,0,1,231.16,138.28Z" fill="#263238"/><g opacity="0.3"><path d="M189,171.32a14.54,14.54,0,0,1-7.92-4.49,16,16,0,0,1-3.43-4.74c-.72,3.14,3.64,8.71,7.9,10.75a15.36,15.36,0,0,0,13.73-.37A51.31,51.31,0,0,1,189,171.32Z"/></g><path d="M227.77,194.3s-.83-.57-2.47-1.31a18.68,18.68,0,0,0-7.39-1.54,27.36,27.36,0,0,0-11,2.22,71.32,71.32,0,0,0-12,6.89,126.08,126.08,0,0,1-22.1,12.26c-3,1.28-5.44,2.19-7.15,2.78-.85.3-1.52.51-2,.65a4.45,4.45,0,0,1-.7.2,3,3,0,0,1,.67-.29l1.94-.75c1.69-.65,4.12-1.61,7.07-2.92a136,136,0,0,0,22-12.36,69.62,69.62,0,0,1,12.12-6.9,27.22,27.22,0,0,1,11.16-2.15,18.22,18.22,0,0,1,7.46,1.72A11,11,0,0,1,227.77,194.3Z" fill="#fff"/><path d="M222.05,177.72a18.36,18.36,0,0,0-1.9-1.48,13.24,13.24,0,0,0-6.18-2,21.23,21.23,0,0,0-9.46,1.75,111.8,111.8,0,0,0-10.7,5.33A101.11,101.11,0,0,1,183,186.6a41.54,41.54,0,0,1-9.49,2.54,28.3,28.3,0,0,1-6.63.11c-.77-.11-1.37-.2-1.78-.29a2.55,2.55,0,0,1-.6-.16c0-.05.85.12,2.4.24a29.43,29.43,0,0,0,6.56-.27,41.8,41.8,0,0,0,9.37-2.62,107.34,107.34,0,0,0,10.76-5.24,108.07,108.07,0,0,1,10.78-5.32,21.32,21.32,0,0,1,9.67-1.67,13.12,13.12,0,0,1,6.25,2.15A7,7,0,0,1,222.05,177.72Z" fill="#fff"/><path d="M179.8,165.12s-.2.21-.64.52a6.39,6.39,0,0,1-.81.52,11.68,11.68,0,0,1-1.13.59,17.3,17.3,0,0,1-3.15,1.12,20.17,20.17,0,0,1-4.06.52,19.85,19.85,0,0,1-4.07-.4,17,17,0,0,1-3.18-1,10.27,10.27,0,0,1-1.15-.57,5.35,5.35,0,0,1-.83-.49c-.44-.3-.68-.47-.66-.5s1,.55,2.78,1.21a18.55,18.55,0,0,0,3.13.9,22.39,22.39,0,0,0,4,.35,22.62,22.62,0,0,0,4-.47,19.11,19.11,0,0,0,3.11-1C178.79,165.7,179.75,165,179.8,165.12Z" fill="#fff"/><path d="M226.82,162.6s-.13.13-.4.34a8.65,8.65,0,0,1-1.25.8,13.82,13.82,0,0,1-5.24,1.5,23.89,23.89,0,0,1-8.06-.74c-3-.71-6.1-1.89-9.45-2.83a43,43,0,0,0-17.67-1.14,44.51,44.51,0,0,0-5.3,1.09,18.75,18.75,0,0,1-1.93.5,1.94,1.94,0,0,1,.48-.21c.31-.12.78-.31,1.4-.49a36.69,36.69,0,0,1,5.3-1.26,41.78,41.78,0,0,1,17.86,1c3.38,1,6.5,2.13,9.43,2.87a24.4,24.4,0,0,0,7.91.84,14.55,14.55,0,0,0,5.18-1.32C226.22,163,226.79,162.56,226.82,162.6Z" fill="#fff"/><path d="M226,147.6a2.69,2.69,0,0,1-.63.1c-.42,0-1,.11-1.85.17a35.19,35.19,0,0,1-6.79-.48c-2.84-.46-6.16-1.31-9.82-2.3a74.51,74.51,0,0,0-12-2.49,31.4,31.4,0,0,0-3.2-.11c-.53,0-1.06,0-1.57,0l-1.54.18a29.28,29.28,0,0,0-5.71,1.44c-3.55,1.26-6.66,2.7-9.39,3.63a25.73,25.73,0,0,1-6.64,1.46,12.82,12.82,0,0,1-1.86,0,2.69,2.69,0,0,1-.64-.06,3.2,3.2,0,0,1,.64,0,15.75,15.75,0,0,0,1.84-.1,27.9,27.9,0,0,0,6.54-1.61c2.69-1,5.77-2.44,9.36-3.73a27.9,27.9,0,0,1,5.79-1.49l1.57-.19c.53,0,1.06,0,1.6-.06a32.58,32.58,0,0,1,3.26.11,72,72,0,0,1,12.1,2.55c3.65,1,6.94,1.89,9.75,2.39a39.26,39.26,0,0,0,6.73.65l1.84-.08A2.84,2.84,0,0,1,226,147.6Z" fill="#fff"/><path d="M236,120.77a41.34,41.34,0,0,0-1.89,4.16,21.35,21.35,0,0,0-1,10.8,21.92,21.92,0,0,0,4.53,9.87c1.78,2.2,3.21,3.25,3.14,3.33a4.76,4.76,0,0,1-1-.72,19.07,19.07,0,0,1-2.41-2.37,21.13,21.13,0,0,1-4.76-10,20.66,20.66,0,0,1,1.14-11,18.73,18.73,0,0,1,1.51-3A4.72,4.72,0,0,1,236,120.77Z" fill="#fff"/><path d="M183.18,123.91a3.15,3.15,0,0,1-.89.2,22.16,22.16,0,0,1-2.46.26,12.87,12.87,0,0,1-3.69-.28,8.3,8.3,0,0,1-4-2.25c-1.15-1.14-2-2.39-2.93-3.41a11.09,11.09,0,0,0-2.69-2.35,6.75,6.75,0,0,0-3.14-.91,2.18,2.18,0,0,1,.91-.11,5.55,5.55,0,0,1,2.41.7,10.84,10.84,0,0,1,2.87,2.35c.94,1,1.83,2.26,2.94,3.35a7.9,7.9,0,0,0,3.7,2.16,13.93,13.93,0,0,0,3.57.39C181.88,124,183.17,123.82,183.18,123.91Z" fill="#fff"/><path d="M181.17,428.48c-.15,0-.26-10.48-.26-23.41s.11-23.41.26-23.41.26,10.48.26,23.41S181.31,428.48,181.17,428.48Z" fill="#263238"/><path d="M185.6,416.45c-.15,0-.26-10.48-.26-23.41s.11-23.41.26-23.41.26,10.48.26,23.41S185.74,416.45,185.6,416.45Z" fill="#263238"/></g></g></svg>